M48
;DRILL file {Pcbnew (2012-apr-16-27)-stable} date dim. 09 juin 2013 16:54:01 CEST
;FORMAT={-:-/ absolute / metric / decimal}
FMAT,2
METRIC,TZ
T1C0.300
T2C0.500
T3C0.800
T4C0.813
T5C1.016
T6C1.778
T7C3.302
%
G90
G05
M71
T1
X55.999Y-116.500
X58.001Y-116.500
X70.000Y-131.001
X71.001Y-131.001
X71.999Y-118.001
X73.000Y-117.000
X73.500Y-111.001
X86.500Y-99.499
X87.500Y-98.001
X88.501Y-100.000
X88.999Y-107.500
X91.501Y-126.500
X92.499Y-124.000
X93.401Y-101.399
X93.500Y-102.301
X94.000Y-105.001
X95.999Y-104.000
T2
X60.249Y-129.250
X63.500Y-122.250
X63.500Y-128.001
X64.750Y-128.750
X65.999Y-125.999
X66.500Y-121.001
X71.250Y-125.499
X71.999Y-131.001
X74.000Y-115.999
X77.500Y-132.001
X79.251Y-107.749
X86.500Y-121.249
X93.500Y-128.001
X96.500Y-96.500
T3
X82.550Y-90.170
X82.550Y-92.710
X85.090Y-90.170
X85.090Y-92.710
X87.630Y-90.170
X87.630Y-92.710
X90.170Y-90.170
X90.170Y-92.710
X92.710Y-90.170
X92.710Y-92.710
X93.190Y-134.501
X95.730Y-134.501
X98.270Y-134.501
X100.500Y-95.921
X100.500Y-98.461
X100.500Y-101.001
X100.500Y-103.541
X100.500Y-106.081
X100.810Y-134.501
T4
X57.501Y-123.960
X57.501Y-129.040
T5
X59.375Y-94.099
X61.554Y-107.889
X61.915Y-94.099
X62.189Y-105.349
X64.094Y-107.889
X64.729Y-105.349
X66.634Y-107.889
X67.269Y-105.349
X69.174Y-107.889
X69.809Y-105.349
X70.084Y-94.099
X72.624Y-94.099
T6
X58.255Y-102.050
X73.744Y-102.050
T7
X60.284Y-98.999
X71.714Y-98.999
T0
M30
