G04 This is an RS-274x file exported by *
G04 gerbv version 2.6.0 *
G04 More information is available about gerbv at *
G04 http://gerbv.gpleda.org/ *
G04 --End of header info--*
%MOIN*%
%FSLAX34Y34*%
%IPPOS*%
G04 --Define apertures--*
%ADD10C,0.0060*%
%ADD11C,0.0039*%
%ADD12C,0.1516*%
%ADD13C,0.0591*%
%ADD14C,0.0600*%
%ADD15C,0.1000*%
%ADD16C,0.0630*%
%ADD17R,0.0630X0.0630*%
%ADD18C,0.0550*%
%ADD19C,0.0157*%
%ADD20C,0.0276*%
%ADD21C,0.0100*%
%ADD22C,0.0197*%
G04 --Start main section--*
G54D11*
G01X0040944Y-054331D02*
G01X0040944Y-034646D01*
G01X0040945Y-054330D02*
G01X0021260Y-054330D01*
G01X0021260Y-034645D02*
G01X0021260Y-054330D01*
G01X0021260Y-034645D02*
G01X0040945Y-034645D01*
G54D12*
G01X0028234Y-038976D03*
G01X0023734Y-038976D03*
G54D13*
G01X0024234Y-042476D03*
G54D14*
G01X0024484Y-041476D03*
G54D13*
G01X0025234Y-042476D03*
G01X0025484Y-041476D03*
G01X0026234Y-042476D03*
G01X0026484Y-041476D03*
G01X0027234Y-042476D03*
G54D15*
G01X0029033Y-040177D03*
G01X0022935Y-040177D03*
G54D14*
G01X0024376Y-037047D03*
G01X0027592Y-037047D03*
G01X0023376Y-037047D03*
G01X0028592Y-037047D03*
G54D13*
G01X0027484Y-041476D03*
G54D16*
G01X0039567Y-040764D03*
G01X0039567Y-039764D03*
G54D17*
G01X0039567Y-041764D03*
G54D16*
G01X0039567Y-038764D03*
G01X0039567Y-037764D03*
G01X0038689Y-052953D03*
G01X0037689Y-052953D03*
G54D17*
G01X0039689Y-052953D03*
G54D16*
G01X0036689Y-052953D03*
G54D18*
G01X0022638Y-050803D03*
G01X0022638Y-048803D03*
G54D16*
G01X0033500Y-035500D03*
G01X0034500Y-035500D03*
G54D17*
G01X0032500Y-035500D03*
G54D16*
G01X0035500Y-035500D03*
G01X0036500Y-035500D03*
G01X0033500Y-036500D03*
G01X0034500Y-036500D03*
G54D17*
G01X0032500Y-036500D03*
G54D16*
G01X0035500Y-036500D03*
G01X0036500Y-036500D03*
G54D19*
G01X0036811Y-040276D03*
G01X0036772Y-039921D03*
G01X0035039Y-042323D03*
G01X0034843Y-039370D03*
G01X0022835Y-045866D03*
G01X0027559Y-051575D03*
G01X0022047Y-045866D03*
G01X0027953Y-051575D03*
G01X0037008Y-041339D03*
G01X0037795Y-040945D03*
G01X0036417Y-048819D03*
G01X0034449Y-038583D03*
G01X0028740Y-046063D03*
G01X0028346Y-046457D03*
G01X0036024Y-049803D03*
G01X0034055Y-039173D03*
G54D20*
G01X0025000Y-050394D03*
G54D19*
G01X0036811Y-050394D03*
G54D20*
G01X0037992Y-037992D03*
G01X0025000Y-048130D03*
G01X0023720Y-050886D03*
G54D19*
G01X0028937Y-043701D03*
G54D20*
G01X0028346Y-051575D03*
G01X0025984Y-049606D03*
G01X0025492Y-050689D03*
G54D19*
G01X0029134Y-045669D03*
G01X0026181Y-047638D03*
G54D20*
G01X0031201Y-042421D03*
G01X0034055Y-047736D03*
G01X0028051Y-049409D03*
G01X0030512Y-051969D03*
G54D21*
G01X0035709Y-040276D02*
G01X0036811Y-040276D01*
G01X0032972Y-036909D02*
G01X0034154Y-038091D01*
G01X0033500Y-035500D02*
G01X0033500Y-035595D01*
G01X0034744Y-038091D02*
G01X0035236Y-038583D01*
G01X0035236Y-039803D02*
G01X0035709Y-040276D01*
G01X0034744Y-038091D02*
G01X0034154Y-038091D01*
G01X0032972Y-036123D02*
G01X0032972Y-036909D01*
G01X0033500Y-035595D02*
G01X0032972Y-036123D01*
G01X0035236Y-038583D02*
G01X0035236Y-039803D01*
G01X0034055Y-035945D02*
G01X0033996Y-036024D01*
G01X0034500Y-035500D02*
G01X0034055Y-035945D01*
G01X0036772Y-039921D02*
G01X0035944Y-039921D01*
G01X0035944Y-039921D02*
G01X0035512Y-039489D01*
G01X0034882Y-037835D02*
G01X0035512Y-038465D01*
G01X0033996Y-036024D02*
G01X0033996Y-037519D01*
G01X0035512Y-038465D02*
G01X0035512Y-039213D01*
G01X0035512Y-039489D02*
G01X0035512Y-039213D01*
G01X0033996Y-037519D02*
G01X0034292Y-037835D01*
G01X0034292Y-037835D02*
G01X0034882Y-037835D01*
G01X0034843Y-042127D02*
G01X0034843Y-039370D01*
G01X0035039Y-042323D02*
G01X0034843Y-042127D01*
G01X0023425Y-052953D02*
G01X0022047Y-051575D01*
G01X0027165Y-052953D02*
G01X0023425Y-052953D01*
G01X0022047Y-051575D02*
G01X0022047Y-047244D01*
G01X0022047Y-046654D02*
G01X0022835Y-045866D01*
G01X0027559Y-052559D02*
G01X0027165Y-052953D01*
G01X0022047Y-047244D02*
G01X0022047Y-046654D01*
G01X0027559Y-051575D02*
G01X0027559Y-052559D01*
G01X0021654Y-051575D02*
G01X0023130Y-053051D01*
G01X0021654Y-051575D02*
G01X0021654Y-046259D01*
G01X0023327Y-053248D02*
G01X0027362Y-053248D01*
G01X0021654Y-046259D02*
G01X0022047Y-045866D01*
G01X0023130Y-053051D02*
G01X0023327Y-053248D01*
G01X0027953Y-051575D02*
G01X0027953Y-052657D01*
G01X0027362Y-053248D02*
G01X0027953Y-052657D01*
G01X0037008Y-041339D02*
G01X0037205Y-041339D01*
G01X0038811Y-037764D02*
G01X0039567Y-037764D01*
G01X0038189Y-039961D02*
G01X0038189Y-038386D01*
G01X0037205Y-041339D02*
G01X0037402Y-041142D01*
G01X0037402Y-041142D02*
G01X0037402Y-040748D01*
G01X0038189Y-038386D02*
G01X0038811Y-037764D01*
G01X0037402Y-040748D02*
G01X0038189Y-039961D01*
G01X0037795Y-040945D02*
G01X0038583Y-040157D01*
G01X0038583Y-040157D02*
G01X0038583Y-039173D01*
G01X0038583Y-039173D02*
G01X0038992Y-038764D01*
G01X0038992Y-038764D02*
G01X0039567Y-038764D01*
G01X0034449Y-038583D02*
G01X0034449Y-042717D01*
G01X0036417Y-050590D02*
G01X0036417Y-048819D01*
G01X0038689Y-052862D02*
G01X0036417Y-050590D01*
G01X0034449Y-042717D02*
G01X0036417Y-044685D01*
G01X0036417Y-045276D02*
G01X0036417Y-048819D01*
G01X0036417Y-044685D02*
G01X0036417Y-045276D01*
G01X0038689Y-052953D02*
G01X0038689Y-052862D01*
G01X0028740Y-046063D02*
G01X0026575Y-046063D01*
G01X0025741Y-043684D02*
G01X0025747Y-042126D01*
G01X0026181Y-045669D02*
G01X0025984Y-045472D01*
G01X0025747Y-042126D02*
G01X0026437Y-041476D01*
G01X0026575Y-046063D02*
G01X0026181Y-045669D01*
G01X0026437Y-041476D02*
G01X0026484Y-041476D01*
G01X0025978Y-043881D02*
G01X0025741Y-043684D01*
G01X0025984Y-045472D02*
G01X0025978Y-043881D01*
G01X0025000Y-045276D02*
G01X0025000Y-042717D01*
G01X0025234Y-042483D02*
G01X0025234Y-042476D01*
G01X0025000Y-042717D02*
G01X0025234Y-042483D01*
G01X0026181Y-046457D02*
G01X0025000Y-045276D01*
G01X0028346Y-046457D02*
G01X0026181Y-046457D01*
G01X0036024Y-045276D02*
G01X0036024Y-049803D01*
G01X0034055Y-042913D02*
G01X0036024Y-044882D01*
G01X0037689Y-052453D02*
G01X0036024Y-050788D01*
G01X0036024Y-050788D02*
G01X0036024Y-049803D01*
G01X0034055Y-039173D02*
G01X0034055Y-042913D01*
G01X0037689Y-052953D02*
G01X0037689Y-052453D01*
G01X0036024Y-044882D02*
G01X0036024Y-045276D01*
G54D22*
G01X0039689Y-052953D02*
G01X0039689Y-051453D01*
G01X0040059Y-039764D02*
G01X0039567Y-039764D01*
G01X0040551Y-040256D02*
G01X0040059Y-039764D01*
G01X0040551Y-050591D02*
G01X0040551Y-040256D01*
G01X0039689Y-051453D02*
G01X0040551Y-050591D01*
G01X0025984Y-040177D02*
G01X0025984Y-040157D01*
G01X0025000Y-048130D02*
G01X0025000Y-050394D01*
G54D21*
G01X0039371Y-051969D02*
G01X0039689Y-052287D01*
G54D22*
G01X0022935Y-041734D02*
G01X0023677Y-042476D01*
G01X0024376Y-037047D02*
G01X0025984Y-037047D01*
G54D21*
G01X0038386Y-051969D02*
G01X0039371Y-051969D01*
G54D22*
G01X0025984Y-040177D02*
G01X0029033Y-040177D01*
G01X0025984Y-037047D02*
G01X0025984Y-040177D01*
G54D21*
G01X0037602Y-036500D02*
G01X0037992Y-036890D01*
G54D22*
G01X0024234Y-043088D02*
G01X0024234Y-042476D01*
G54D21*
G01X0039689Y-052287D02*
G01X0039689Y-052953D01*
G54D22*
G01X0022935Y-040177D02*
G01X0022935Y-041734D01*
G01X0025984Y-037047D02*
G01X0027592Y-037047D01*
G01X0037602Y-036500D02*
G01X0037992Y-036890D01*
G54D21*
G01X0037992Y-036890D02*
G01X0037992Y-037992D01*
G54D22*
G01X0037992Y-036890D02*
G01X0037992Y-037992D01*
G01X0036500Y-036500D02*
G01X0037602Y-036500D01*
G01X0023720Y-050886D02*
G01X0023720Y-043602D01*
G01X0023720Y-043602D02*
G01X0024234Y-043088D01*
G01X0023677Y-042476D02*
G01X0024234Y-042476D01*
G01X0025984Y-040157D02*
G01X0025984Y-040177D01*
G01X0022935Y-040177D02*
G01X0025984Y-040177D01*
G54D21*
G01X0036811Y-050394D02*
G01X0038386Y-051969D01*
G01X0026575Y-043701D02*
G01X0028937Y-043701D01*
G01X0026234Y-043360D02*
G01X0026575Y-043701D01*
G01X0026234Y-042476D02*
G01X0026234Y-043360D01*
G54D22*
G01X0025984Y-050197D02*
G01X0025492Y-050689D01*
G01X0025984Y-049606D02*
G01X0025984Y-050197D01*
G54D21*
G01X0029134Y-046654D02*
G01X0029134Y-045669D01*
G01X0028544Y-047244D02*
G01X0029134Y-046654D01*
G54D22*
G01X0030610Y-041830D02*
G01X0031201Y-042421D01*
G01X0029134Y-046654D02*
G01X0029134Y-045669D01*
G01X0028740Y-051969D02*
G01X0028346Y-051575D01*
G01X0028346Y-051575D02*
G01X0028346Y-049704D01*
G01X0034055Y-045275D02*
G01X0034055Y-047736D01*
G01X0032500Y-035500D02*
G01X0031626Y-035500D01*
G54D21*
G01X0026181Y-047638D02*
G01X0025984Y-047835D01*
G54D22*
G01X0025984Y-049606D02*
G01X0025984Y-047835D01*
G01X0031201Y-042421D02*
G01X0034055Y-045275D01*
G01X0028544Y-047244D02*
G01X0029134Y-046654D01*
G01X0028346Y-049704D02*
G01X0028051Y-049409D01*
G54D21*
G01X0026575Y-047244D02*
G01X0028544Y-047244D01*
G54D22*
G01X0026181Y-047638D02*
G01X0026575Y-047244D01*
G01X0025984Y-047835D02*
G01X0026181Y-047638D01*
G01X0030610Y-036516D02*
G01X0030610Y-041830D01*
G01X0030512Y-051969D02*
G01X0028740Y-051969D01*
G01X0031626Y-035500D02*
G01X0030610Y-036516D01*
G01X0026575Y-047244D02*
G01X0028544Y-047244D01*
G54D10*
G36*
G01X0040718Y-054104D02*
G01X0040254Y-054104D01*
G01X0040254Y-053065D01*
G01X0040254Y-052841D01*
G01X0040253Y-052687D01*
G01X0040253Y-052588D01*
G01X0040215Y-052497D01*
G01X0040145Y-052427D01*
G01X0040125Y-052418D01*
G01X0040125Y-039847D01*
G01X0040114Y-039627D01*
G01X0040089Y-039566D01*
G01X0040089Y-038869D01*
G01X0040089Y-038661D01*
G01X0040010Y-038469D01*
G01X0039863Y-038322D01*
G01X0039724Y-038263D01*
G01X0039862Y-038207D01*
G01X0040009Y-038060D01*
G01X0040089Y-037869D01*
G01X0040089Y-037661D01*
G01X0040010Y-037469D01*
G01X0039863Y-037322D01*
G01X0039672Y-037242D01*
G01X0039464Y-037242D01*
G01X0039272Y-037321D01*
G01X0039125Y-037468D01*
G01X0039108Y-037507D01*
G01X0038811Y-037507D01*
G01X0038713Y-037527D01*
G01X0038629Y-037582D01*
G01X0038627Y-037584D01*
G01X0038007Y-038204D01*
G01X0037952Y-038288D01*
G01X0037932Y-038386D01*
G01X0037932Y-039854D01*
G01X0037220Y-040566D01*
G01X0037165Y-040650D01*
G01X0037145Y-040748D01*
G01X0037145Y-041035D01*
G01X0037107Y-041072D01*
G01X0037065Y-041055D01*
G01X0036952Y-041055D01*
G01X0036848Y-041098D01*
G01X0036768Y-041178D01*
G01X0036724Y-041282D01*
G01X0036724Y-041395D01*
G01X0036767Y-041499D01*
G01X0036847Y-041579D01*
G01X0036951Y-041623D01*
G01X0037064Y-041623D01*
G01X0037129Y-041596D01*
G01X0037205Y-041596D01*
G01X0037303Y-041576D01*
G01X0037387Y-041521D01*
G01X0037581Y-041325D01*
G01X0037583Y-041324D01*
G01X0037584Y-041324D01*
G01X0037638Y-041241D01*
G01X0037639Y-041240D01*
G01X0037648Y-041191D01*
G01X0037738Y-041229D01*
G01X0037851Y-041229D01*
G01X0037955Y-041186D01*
G01X0038035Y-041106D01*
G01X0038062Y-041041D01*
G01X0038762Y-040340D01*
G01X0038764Y-040339D01*
G01X0038765Y-040339D01*
G01X0038797Y-040288D01*
G01X0038820Y-040256D01*
G01X0038820Y-040255D01*
G01X0038840Y-040157D01*
G01X0038840Y-039279D01*
G01X0039098Y-039021D01*
G01X0039108Y-039021D01*
G01X0039124Y-039059D01*
G01X0039271Y-039206D01*
G01X0039363Y-039244D01*
G01X0039277Y-039280D01*
G01X0039249Y-039375D01*
G01X0039567Y-039693D01*
G01X0039885Y-039375D01*
G01X0039857Y-039280D01*
G01X0039764Y-039247D01*
G01X0039862Y-039207D01*
G01X0040009Y-039060D01*
G01X0040089Y-038869D01*
G01X0040089Y-039566D01*
G01X0040051Y-039474D01*
G01X0039956Y-039446D01*
G01X0039638Y-039764D01*
G01X0039956Y-040082D01*
G01X0040051Y-040054D01*
G01X0040125Y-039847D01*
G01X0040125Y-052418D01*
G01X0040089Y-052403D01*
G01X0040089Y-042120D01*
G01X0040089Y-042038D01*
G01X0040089Y-041408D01*
G01X0040058Y-041332D01*
G01X0039999Y-041274D01*
G01X0039923Y-041242D01*
G01X0039841Y-041242D01*
G01X0039776Y-041242D01*
G01X0039862Y-041207D01*
G01X0040009Y-041060D01*
G01X0040089Y-040869D01*
G01X0040089Y-040661D01*
G01X0040010Y-040469D01*
G01X0039863Y-040322D01*
G01X0039770Y-040283D01*
G01X0039857Y-040248D01*
G01X0039885Y-040153D01*
G01X0039567Y-039835D01*
G01X0039496Y-039906D01*
G01X0039496Y-039764D01*
G01X0039178Y-039446D01*
G01X0039083Y-039474D01*
G01X0039009Y-039681D01*
G01X0039020Y-039901D01*
G01X0039083Y-040054D01*
G01X0039178Y-040082D01*
G01X0039496Y-039764D01*
G01X0039496Y-039906D01*
G01X0039249Y-040153D01*
G01X0039277Y-040248D01*
G01X0039369Y-040280D01*
G01X0039272Y-040321D01*
G01X0039125Y-040468D01*
G01X0039045Y-040659D01*
G01X0039045Y-040867D01*
G01X0039124Y-041059D01*
G01X0039271Y-041206D01*
G01X0039356Y-041242D01*
G01X0039211Y-041242D01*
G01X0039135Y-041273D01*
G01X0039077Y-041332D01*
G01X0039045Y-041408D01*
G01X0039045Y-041490D01*
G01X0039045Y-042120D01*
G01X0039076Y-042196D01*
G01X0039135Y-042254D01*
G01X0039211Y-042286D01*
G01X0039293Y-042286D01*
G01X0039923Y-042286D01*
G01X0039999Y-042255D01*
G01X0040057Y-042196D01*
G01X0040089Y-042120D01*
G01X0040089Y-052403D01*
G01X0040053Y-052389D01*
G01X0039801Y-052388D01*
G01X0039739Y-052450D01*
G01X0039739Y-052903D01*
G01X0040192Y-052903D01*
G01X0040254Y-052841D01*
G01X0040254Y-053065D01*
G01X0040192Y-053003D01*
G01X0039739Y-053003D01*
G01X0039739Y-053456D01*
G01X0039801Y-053518D01*
G01X0040053Y-053517D01*
G01X0040145Y-053479D01*
G01X0040215Y-053409D01*
G01X0040253Y-053318D01*
G01X0040253Y-053219D01*
G01X0040254Y-053065D01*
G01X0040254Y-054104D01*
G01X0039639Y-054104D01*
G01X0039639Y-053456D01*
G01X0039639Y-053053D01*
G01X0039639Y-053003D01*
G01X0039639Y-052903D01*
G01X0039639Y-052853D01*
G01X0039639Y-052450D01*
G01X0039577Y-052388D01*
G01X0039325Y-052389D01*
G01X0039233Y-052427D01*
G01X0039163Y-052497D01*
G01X0039125Y-052588D01*
G01X0039125Y-052651D01*
G01X0038985Y-052511D01*
G01X0038794Y-052431D01*
G01X0038622Y-052431D01*
G01X0036674Y-050483D01*
G01X0036674Y-048939D01*
G01X0036701Y-048876D01*
G01X0036701Y-048763D01*
G01X0036674Y-048697D01*
G01X0036674Y-045276D01*
G01X0036674Y-044685D01*
G01X0036654Y-044587D01*
G01X0036599Y-044503D01*
G01X0034706Y-042610D01*
G01X0034706Y-042354D01*
G01X0034771Y-042419D01*
G01X0034798Y-042483D01*
G01X0034878Y-042563D01*
G01X0034982Y-042607D01*
G01X0035095Y-042607D01*
G01X0035199Y-042564D01*
G01X0035279Y-042484D01*
G01X0035323Y-042380D01*
G01X0035323Y-042267D01*
G01X0035280Y-042163D01*
G01X0035200Y-042083D01*
G01X0035135Y-042055D01*
G01X0035100Y-042020D01*
G01X0035100Y-040030D01*
G01X0035525Y-040455D01*
G01X0035527Y-040458D01*
G01X0035610Y-040512D01*
G01X0035611Y-040513D01*
G01X0035688Y-040528D01*
G01X0035708Y-040533D01*
G01X0035708Y-040532D01*
G01X0035709Y-040533D01*
G01X0036690Y-040533D01*
G01X0036754Y-040560D01*
G01X0036867Y-040560D01*
G01X0036971Y-040517D01*
G01X0037051Y-040437D01*
G01X0037095Y-040333D01*
G01X0037095Y-040220D01*
G01X0037058Y-040130D01*
G01X0037058Y-036583D01*
G01X0037047Y-036363D01*
G01X0036984Y-036210D01*
G01X0036889Y-036182D01*
G01X0036571Y-036500D01*
G01X0036889Y-036818D01*
G01X0036984Y-036790D01*
G01X0037058Y-036583D01*
G01X0037058Y-040130D01*
G01X0037052Y-040116D01*
G01X0037013Y-040077D01*
G01X0037056Y-039978D01*
G01X0037056Y-039865D01*
G01X0037013Y-039761D01*
G01X0036933Y-039681D01*
G01X0036829Y-039637D01*
G01X0036818Y-039637D01*
G01X0036818Y-036889D01*
G01X0036500Y-036571D01*
G01X0036182Y-036889D01*
G01X0036210Y-036984D01*
G01X0036417Y-037058D01*
G01X0036637Y-037047D01*
G01X0036790Y-036984D01*
G01X0036818Y-036889D01*
G01X0036818Y-039637D01*
G01X0036716Y-039637D01*
G01X0036650Y-039664D01*
G01X0036050Y-039664D01*
G01X0035769Y-039382D01*
G01X0035769Y-039213D01*
G01X0035769Y-038465D01*
G01X0035768Y-038464D01*
G01X0035769Y-038464D01*
G01X0035764Y-038444D01*
G01X0035749Y-038367D01*
G01X0035748Y-038366D01*
G01X0035694Y-038283D01*
G01X0035691Y-038281D01*
G01X0035064Y-037653D01*
G01X0034980Y-037598D01*
G01X0034882Y-037578D01*
G01X0034403Y-037578D01*
G01X0034253Y-037416D01*
G01X0034253Y-036962D01*
G01X0034395Y-037022D01*
G01X0034603Y-037022D01*
G01X0034795Y-036943D01*
G01X0034942Y-036796D01*
G01X0035000Y-036657D01*
G01X0035057Y-036795D01*
G01X0035204Y-036942D01*
G01X0035395Y-037022D01*
G01X0035603Y-037022D01*
G01X0035795Y-036943D01*
G01X0035942Y-036796D01*
G01X0035980Y-036703D01*
G01X0036016Y-036790D01*
G01X0036111Y-036818D01*
G01X0036429Y-036500D01*
G01X0036111Y-036182D01*
G01X0036016Y-036210D01*
G01X0035983Y-036302D01*
G01X0035943Y-036205D01*
G01X0035796Y-036058D01*
G01X0035657Y-035999D01*
G01X0035795Y-035943D01*
G01X0035942Y-035796D01*
G01X0036000Y-035657D01*
G01X0036057Y-035795D01*
G01X0036204Y-035942D01*
G01X0036296Y-035980D01*
G01X0036210Y-036016D01*
G01X0036182Y-036111D01*
G01X0036500Y-036429D01*
G01X0036818Y-036111D01*
G01X0036790Y-036016D01*
G01X0036697Y-035983D01*
G01X0036795Y-035943D01*
G01X0036942Y-035796D01*
G01X0037022Y-035605D01*
G01X0037022Y-035397D01*
G01X0036943Y-035205D01*
G01X0036796Y-035058D01*
G01X0036605Y-034978D01*
G01X0036397Y-034978D01*
G01X0036205Y-035057D01*
G01X0036058Y-035204D01*
G01X0035999Y-035342D01*
G01X0035943Y-035205D01*
G01X0035796Y-035058D01*
G01X0035605Y-034978D01*
G01X0035397Y-034978D01*
G01X0035205Y-035057D01*
G01X0035058Y-035204D01*
G01X0034999Y-035342D01*
G01X0034943Y-035205D01*
G01X0034796Y-035058D01*
G01X0034605Y-034978D01*
G01X0034397Y-034978D01*
G01X0034205Y-035057D01*
G01X0034058Y-035204D01*
G01X0033999Y-035342D01*
G01X0033943Y-035205D01*
G01X0033796Y-035058D01*
G01X0033605Y-034978D01*
G01X0033397Y-034978D01*
G01X0033205Y-035057D01*
G01X0033058Y-035204D01*
G01X0033022Y-035289D01*
G01X0033022Y-035144D01*
G01X0032991Y-035068D01*
G01X0032932Y-035010D01*
G01X0032856Y-034978D01*
G01X0032774Y-034978D01*
G01X0032144Y-034978D01*
G01X0032068Y-035009D01*
G01X0032010Y-035068D01*
G01X0031978Y-035144D01*
G01X0031978Y-035195D01*
G01X0031626Y-035195D01*
G01X0031625Y-035195D01*
G01X0031509Y-035218D01*
G01X0031410Y-035284D01*
G01X0031408Y-035286D01*
G01X0030394Y-036300D01*
G01X0030328Y-036399D01*
G01X0030305Y-036516D01*
G01X0030305Y-041830D01*
G01X0030328Y-041947D01*
G01X0030394Y-042046D01*
G01X0030870Y-042521D01*
G01X0030909Y-042615D01*
G01X0031006Y-042712D01*
G01X0031099Y-042751D01*
G01X0033750Y-045402D01*
G01X0033750Y-047574D01*
G01X0033711Y-047667D01*
G01X0033711Y-047804D01*
G01X0033763Y-047930D01*
G01X0033860Y-048027D01*
G01X0033986Y-048080D01*
G01X0034123Y-048080D01*
G01X0034249Y-048028D01*
G01X0034346Y-047931D01*
G01X0034399Y-047805D01*
G01X0034399Y-047668D01*
G01X0034360Y-047573D01*
G01X0034360Y-045275D01*
G01X0034337Y-045158D01*
G01X0034271Y-045059D01*
G01X0031530Y-042318D01*
G01X0031493Y-042227D01*
G01X0031396Y-042130D01*
G01X0031301Y-042090D01*
G01X0030915Y-041703D01*
G01X0030915Y-036642D01*
G01X0031752Y-035805D01*
G01X0031978Y-035805D01*
G01X0031978Y-035856D01*
G01X0032009Y-035932D01*
G01X0032068Y-035990D01*
G01X0032090Y-035999D01*
G01X0032068Y-036009D01*
G01X0032010Y-036068D01*
G01X0031978Y-036144D01*
G01X0031978Y-036226D01*
G01X0031978Y-036856D01*
G01X0032009Y-036932D01*
G01X0032068Y-036990D01*
G01X0032144Y-037022D01*
G01X0032226Y-037022D01*
G01X0032744Y-037022D01*
G01X0032790Y-037091D01*
G01X0033970Y-038270D01*
G01X0033972Y-038273D01*
G01X0034055Y-038327D01*
G01X0034056Y-038328D01*
G01X0034154Y-038348D01*
G01X0034283Y-038348D01*
G01X0034209Y-038422D01*
G01X0034165Y-038526D01*
G01X0034165Y-038639D01*
G01X0034192Y-038704D01*
G01X0034192Y-038922D01*
G01X0034112Y-038889D01*
G01X0033999Y-038889D01*
G01X0033895Y-038932D01*
G01X0033815Y-039012D01*
G01X0033771Y-039116D01*
G01X0033771Y-039229D01*
G01X0033798Y-039294D01*
G01X0033798Y-042913D01*
G01X0033818Y-043011D01*
G01X0033873Y-043095D01*
G01X0035767Y-044988D01*
G01X0035767Y-045276D01*
G01X0035767Y-049682D01*
G01X0035740Y-049746D01*
G01X0035740Y-049859D01*
G01X0035767Y-049924D01*
G01X0035767Y-050788D01*
G01X0035787Y-050886D01*
G01X0035842Y-050970D01*
G01X0037388Y-052515D01*
G01X0037247Y-052657D01*
G01X0037188Y-052795D01*
G01X0037132Y-052658D01*
G01X0036985Y-052511D01*
G01X0036794Y-052431D01*
G01X0036586Y-052431D01*
G01X0036394Y-052510D01*
G01X0036247Y-052657D01*
G01X0036167Y-052848D01*
G01X0036167Y-053056D01*
G01X0036246Y-053248D01*
G01X0036393Y-053395D01*
G01X0036584Y-053475D01*
G01X0036792Y-053475D01*
G01X0036984Y-053396D01*
G01X0037131Y-053249D01*
G01X0037189Y-053110D01*
G01X0037246Y-053248D01*
G01X0037393Y-053395D01*
G01X0037584Y-053475D01*
G01X0037792Y-053475D01*
G01X0037984Y-053396D01*
G01X0038131Y-053249D01*
G01X0038189Y-053110D01*
G01X0038246Y-053248D01*
G01X0038393Y-053395D01*
G01X0038584Y-053475D01*
G01X0038792Y-053475D01*
G01X0038984Y-053396D01*
G01X0039125Y-053255D01*
G01X0039125Y-053318D01*
G01X0039163Y-053409D01*
G01X0039233Y-053479D01*
G01X0039325Y-053517D01*
G01X0039577Y-053518D01*
G01X0039639Y-053456D01*
G01X0039639Y-054104D01*
G01X0021486Y-054104D01*
G01X0021486Y-051770D01*
G01X0022946Y-053230D01*
G01X0022948Y-053233D01*
G01X0023143Y-053427D01*
G01X0023145Y-053430D01*
G01X0023228Y-053484D01*
G01X0023229Y-053485D01*
G01X0023327Y-053505D01*
G01X0027362Y-053505D01*
G01X0027460Y-053485D01*
G01X0027544Y-053430D01*
G01X0028132Y-052840D01*
G01X0028134Y-052839D01*
G01X0028135Y-052839D01*
G01X0028189Y-052756D01*
G01X0028190Y-052755D01*
G01X0028205Y-052678D01*
G01X0028210Y-052658D01*
G01X0028209Y-052657D01*
G01X0028210Y-052657D01*
G01X0028210Y-051890D01*
G01X0028244Y-051905D01*
G01X0028524Y-052185D01*
G01X0028623Y-052251D01*
G01X0028740Y-052274D01*
G01X0030350Y-052274D01*
G01X0030443Y-052313D01*
G01X0030580Y-052313D01*
G01X0030706Y-052261D01*
G01X0030803Y-052164D01*
G01X0030856Y-052038D01*
G01X0030856Y-051901D01*
G01X0030804Y-051775D01*
G01X0030707Y-051678D01*
G01X0030581Y-051625D01*
G01X0030444Y-051625D01*
G01X0030349Y-051664D01*
G01X0029772Y-051664D01*
G01X0029772Y-040304D01*
G01X0029764Y-040012D01*
G01X0029667Y-039777D01*
G01X0029553Y-039727D01*
G01X0029483Y-039797D01*
G01X0029483Y-039657D01*
G01X0029433Y-039543D01*
G01X0029160Y-039438D01*
G01X0029085Y-039440D01*
G01X0029198Y-039168D01*
G01X0029198Y-038785D01*
G01X0029098Y-038542D01*
G01X0029098Y-037148D01*
G01X0029098Y-036947D01*
G01X0029021Y-036761D01*
G01X0028879Y-036618D01*
G01X0028693Y-036541D01*
G01X0028492Y-036541D01*
G01X0028306Y-036618D01*
G01X0028163Y-036760D01*
G01X0028111Y-036883D01*
G01X0028064Y-036766D01*
G01X0027970Y-036739D01*
G01X0027900Y-036809D01*
G01X0027900Y-036669D01*
G01X0027873Y-036575D01*
G01X0027671Y-036504D01*
G01X0027458Y-036515D01*
G01X0027311Y-036575D01*
G01X0027284Y-036669D01*
G01X0027592Y-036976D01*
G01X0027900Y-036669D01*
G01X0027900Y-036809D01*
G01X0027663Y-037047D01*
G01X0027970Y-037355D01*
G01X0028064Y-037328D01*
G01X0028108Y-037201D01*
G01X0028163Y-037333D01*
G01X0028305Y-037476D01*
G01X0028491Y-037553D01*
G01X0028692Y-037553D01*
G01X0028878Y-037476D01*
G01X0029021Y-037334D01*
G01X0029098Y-037148D01*
G01X0029098Y-038542D01*
G01X0029052Y-038431D01*
G01X0028781Y-038159D01*
G01X0028426Y-038012D01*
G01X0028043Y-038012D01*
G01X0027900Y-038070D01*
G01X0027900Y-037425D01*
G01X0027592Y-037118D01*
G01X0027521Y-037188D01*
G01X0027521Y-037047D01*
G01X0027214Y-036739D01*
G01X0027120Y-036766D01*
G01X0027049Y-036968D01*
G01X0027060Y-037181D01*
G01X0027120Y-037328D01*
G01X0027214Y-037355D01*
G01X0027521Y-037047D01*
G01X0027521Y-037188D01*
G01X0027284Y-037425D01*
G01X0027311Y-037519D01*
G01X0027513Y-037590D01*
G01X0027726Y-037579D01*
G01X0027873Y-037519D01*
G01X0027900Y-037425D01*
G01X0027900Y-038070D01*
G01X0027689Y-038158D01*
G01X0027417Y-038429D01*
G01X0027270Y-038784D01*
G01X0027270Y-039167D01*
G01X0027416Y-039521D01*
G01X0027687Y-039793D01*
G01X0028042Y-039940D01*
G01X0028336Y-039940D01*
G01X0028294Y-040050D01*
G01X0028302Y-040342D01*
G01X0028399Y-040577D01*
G01X0028513Y-040627D01*
G01X0028927Y-040212D01*
G01X0028962Y-040177D01*
G01X0029033Y-040106D01*
G01X0029068Y-040071D01*
G01X0029483Y-039657D01*
G01X0029483Y-039797D01*
G01X0029104Y-040177D01*
G01X0029553Y-040627D01*
G01X0029667Y-040577D01*
G01X0029772Y-040304D01*
G01X0029772Y-051664D01*
G01X0029483Y-051664D01*
G01X0029483Y-040697D01*
G01X0029033Y-040248D01*
G01X0028583Y-040697D01*
G01X0028633Y-040811D01*
G01X0028906Y-040916D01*
G01X0029198Y-040908D01*
G01X0029433Y-040811D01*
G01X0029483Y-040697D01*
G01X0029483Y-051664D01*
G01X0029439Y-051664D01*
G01X0029439Y-046654D01*
G01X0029439Y-045669D01*
G01X0029416Y-045552D01*
G01X0029350Y-045453D01*
G01X0029251Y-045387D01*
G01X0029134Y-045364D01*
G01X0029017Y-045387D01*
G01X0028918Y-045453D01*
G01X0028852Y-045552D01*
G01X0028829Y-045669D01*
G01X0028829Y-045792D01*
G01X0028797Y-045779D01*
G01X0028684Y-045779D01*
G01X0028618Y-045806D01*
G01X0026682Y-045806D01*
G01X0026363Y-045487D01*
G01X0026360Y-045485D01*
G01X0026240Y-045364D01*
G01X0026235Y-043880D01*
G01X0026232Y-043868D01*
G01X0026234Y-043857D01*
G01X0026222Y-043819D01*
G01X0026215Y-043782D01*
G01X0026208Y-043771D01*
G01X0026205Y-043761D01*
G01X0026182Y-043732D01*
G01X0026159Y-043698D01*
G01X0026148Y-043691D01*
G01X0026142Y-043683D01*
G01X0025998Y-043563D01*
G01X0025998Y-043460D01*
G01X0026052Y-043542D01*
G01X0026393Y-043883D01*
G01X0026477Y-043938D01*
G01X0026575Y-043958D01*
G01X0028816Y-043958D01*
G01X0028880Y-043985D01*
G01X0028993Y-043985D01*
G01X0029097Y-043942D01*
G01X0029177Y-043862D01*
G01X0029221Y-043758D01*
G01X0029221Y-043645D01*
G01X0029178Y-043541D01*
G01X0029098Y-043461D01*
G01X0028994Y-043417D01*
G01X0028881Y-043417D01*
G01X0028815Y-043444D01*
G01X0026682Y-043444D01*
G01X0026491Y-043253D01*
G01X0026491Y-042911D01*
G01X0026517Y-042901D01*
G01X0026658Y-042760D01*
G01X0026734Y-042577D01*
G01X0026809Y-042759D01*
G01X0026950Y-042900D01*
G01X0027134Y-042977D01*
G01X0027333Y-042977D01*
G01X0027517Y-042901D01*
G01X0027658Y-042760D01*
G01X0027735Y-042576D01*
G01X0027735Y-042377D01*
G01X0027659Y-042193D01*
G01X0027518Y-042052D01*
G01X0027334Y-041975D01*
G01X0027135Y-041975D01*
G01X0026951Y-042051D01*
G01X0026810Y-042192D01*
G01X0026733Y-042374D01*
G01X0026659Y-042193D01*
G01X0026518Y-042052D01*
G01X0026334Y-041975D01*
G01X0026281Y-041975D01*
G01X0026311Y-041946D01*
G01X0026384Y-041977D01*
G01X0026583Y-041977D01*
G01X0026767Y-041901D01*
G01X0026908Y-041760D01*
G01X0026984Y-041577D01*
G01X0027059Y-041759D01*
G01X0027200Y-041900D01*
G01X0027384Y-041977D01*
G01X0027583Y-041977D01*
G01X0027767Y-041901D01*
G01X0027908Y-041760D01*
G01X0027985Y-041576D01*
G01X0027985Y-041377D01*
G01X0027909Y-041193D01*
G01X0027768Y-041052D01*
G01X0027584Y-040975D01*
G01X0027385Y-040975D01*
G01X0027201Y-041051D01*
G01X0027060Y-041192D01*
G01X0026983Y-041374D01*
G01X0026909Y-041193D01*
G01X0026768Y-041052D01*
G01X0026584Y-040975D01*
G01X0026385Y-040975D01*
G01X0026201Y-041051D01*
G01X0026060Y-041192D01*
G01X0025983Y-041374D01*
G01X0025909Y-041193D01*
G01X0025768Y-041052D01*
G01X0025584Y-040975D01*
G01X0025385Y-040975D01*
G01X0025201Y-041051D01*
G01X0025060Y-041192D01*
G01X0024986Y-041367D01*
G01X0024919Y-041204D01*
G01X0024919Y-037126D01*
G01X0024908Y-036913D01*
G01X0024848Y-036766D01*
G01X0024754Y-036739D01*
G01X0024684Y-036809D01*
G01X0024684Y-036669D01*
G01X0024657Y-036575D01*
G01X0024455Y-036504D01*
G01X0024242Y-036515D01*
G01X0024095Y-036575D01*
G01X0024068Y-036669D01*
G01X0024376Y-036976D01*
G01X0024684Y-036669D01*
G01X0024684Y-036809D01*
G01X0024447Y-037047D01*
G01X0024754Y-037355D01*
G01X0024848Y-037328D01*
G01X0024919Y-037126D01*
G01X0024919Y-041204D01*
G01X0024913Y-041190D01*
G01X0024771Y-041047D01*
G01X0024698Y-041016D01*
G01X0024698Y-039168D01*
G01X0024698Y-038785D01*
G01X0024684Y-038751D01*
G01X0024684Y-037425D01*
G01X0024376Y-037118D01*
G01X0024305Y-037188D01*
G01X0024305Y-037047D01*
G01X0023998Y-036739D01*
G01X0023904Y-036766D01*
G01X0023859Y-036892D01*
G01X0023805Y-036761D01*
G01X0023663Y-036618D01*
G01X0023477Y-036541D01*
G01X0023276Y-036541D01*
G01X0023090Y-036618D01*
G01X0022947Y-036760D01*
G01X0022870Y-036946D01*
G01X0022870Y-037147D01*
G01X0022947Y-037333D01*
G01X0023089Y-037476D01*
G01X0023275Y-037553D01*
G01X0023476Y-037553D01*
G01X0023662Y-037476D01*
G01X0023805Y-037334D01*
G01X0023856Y-037210D01*
G01X0023904Y-037328D01*
G01X0023998Y-037355D01*
G01X0024305Y-037047D01*
G01X0024305Y-037188D01*
G01X0024068Y-037425D01*
G01X0024095Y-037519D01*
G01X0024297Y-037590D01*
G01X0024510Y-037579D01*
G01X0024657Y-037519D01*
G01X0024684Y-037425D01*
G01X0024684Y-038751D01*
G01X0024552Y-038431D01*
G01X0024281Y-038159D01*
G01X0023926Y-038012D01*
G01X0023543Y-038012D01*
G01X0023189Y-038158D01*
G01X0022917Y-038429D01*
G01X0022770Y-038784D01*
G01X0022770Y-039167D01*
G01X0022883Y-039442D01*
G01X0022770Y-039446D01*
G01X0022535Y-039543D01*
G01X0022485Y-039657D01*
G01X0022900Y-040071D01*
G01X0022935Y-040106D01*
G01X0023006Y-040177D01*
G01X0023041Y-040212D01*
G01X0023455Y-040627D01*
G01X0023569Y-040577D01*
G01X0023674Y-040304D01*
G01X0023666Y-040012D01*
G01X0023636Y-039940D01*
G01X0023925Y-039940D01*
G01X0024279Y-039794D01*
G01X0024551Y-039523D01*
G01X0024698Y-039168D01*
G01X0024698Y-041016D01*
G01X0024585Y-040970D01*
G01X0024384Y-040970D01*
G01X0024198Y-041047D01*
G01X0024055Y-041189D01*
G01X0023978Y-041375D01*
G01X0023978Y-041576D01*
G01X0024055Y-041762D01*
G01X0024197Y-041905D01*
G01X0024276Y-041937D01*
G01X0024100Y-041948D01*
G01X0023955Y-042008D01*
G01X0023930Y-042101D01*
G01X0024234Y-042405D01*
G01X0024538Y-042101D01*
G01X0024513Y-042008D01*
G01X0024440Y-041982D01*
G01X0024584Y-041982D01*
G01X0024770Y-041905D01*
G01X0024913Y-041763D01*
G01X0024986Y-041584D01*
G01X0025059Y-041759D01*
G01X0025200Y-041900D01*
G01X0025384Y-041977D01*
G01X0025542Y-041977D01*
G01X0025525Y-042003D01*
G01X0025513Y-042021D01*
G01X0025512Y-042023D01*
G01X0025510Y-042027D01*
G01X0025505Y-042046D01*
G01X0025334Y-041975D01*
G01X0025135Y-041975D01*
G01X0024951Y-042051D01*
G01X0024810Y-042192D01*
G01X0024754Y-042324D01*
G01X0024702Y-042197D01*
G01X0024609Y-042172D01*
G01X0024305Y-042476D01*
G01X0024609Y-042780D01*
G01X0024702Y-042755D01*
G01X0024750Y-042618D01*
G01X0024759Y-042638D01*
G01X0024743Y-042717D01*
G01X0024743Y-045276D01*
G01X0024763Y-045374D01*
G01X0024818Y-045458D01*
G01X0025999Y-046639D01*
G01X0026083Y-046694D01*
G01X0026181Y-046714D01*
G01X0028225Y-046714D01*
G01X0028289Y-046741D01*
G01X0028402Y-046741D01*
G01X0028506Y-046698D01*
G01X0028586Y-046618D01*
G01X0028630Y-046514D01*
G01X0028630Y-046401D01*
G01X0028596Y-046320D01*
G01X0028619Y-046320D01*
G01X0028683Y-046347D01*
G01X0028796Y-046347D01*
G01X0028829Y-046333D01*
G01X0028829Y-046527D01*
G01X0028417Y-046939D01*
G01X0026575Y-046939D01*
G01X0026458Y-046962D01*
G01X0026359Y-047028D01*
G01X0025965Y-047422D01*
G01X0025963Y-047424D01*
G01X0025768Y-047619D01*
G01X0025702Y-047718D01*
G01X0025679Y-047835D01*
G01X0025679Y-049444D01*
G01X0025640Y-049537D01*
G01X0025640Y-049674D01*
G01X0025679Y-049768D01*
G01X0025679Y-050070D01*
G01X0025390Y-050358D01*
G01X0025298Y-050397D01*
G01X0025201Y-050494D01*
G01X0025148Y-050620D01*
G01X0025148Y-050757D01*
G01X0025200Y-050883D01*
G01X0025297Y-050980D01*
G01X0025423Y-051033D01*
G01X0025560Y-051033D01*
G01X0025686Y-050981D01*
G01X0025783Y-050884D01*
G01X0025822Y-050790D01*
G01X0026197Y-050414D01*
G01X0026199Y-050413D01*
G01X0026200Y-050413D01*
G01X0026266Y-050314D01*
G01X0026289Y-050198D01*
G01X0026288Y-050197D01*
G01X0026289Y-050197D01*
G01X0026289Y-049767D01*
G01X0026328Y-049675D01*
G01X0026328Y-049538D01*
G01X0026289Y-049443D01*
G01X0026289Y-047961D01*
G01X0026394Y-047855D01*
G01X0026396Y-047854D01*
G01X0026397Y-047854D01*
G01X0026702Y-047549D01*
G01X0028544Y-047549D01*
G01X0028661Y-047526D01*
G01X0028760Y-047460D01*
G01X0029347Y-046871D01*
G01X0029349Y-046870D01*
G01X0029350Y-046870D01*
G01X0029416Y-046771D01*
G01X0029439Y-046654D01*
G01X0029439Y-051664D01*
G01X0028867Y-051664D01*
G01X0028675Y-051472D01*
G01X0028651Y-051412D01*
G01X0028651Y-049704D01*
G01X0028628Y-049587D01*
G01X0028562Y-049488D01*
G01X0028380Y-049306D01*
G01X0028343Y-049215D01*
G01X0028246Y-049118D01*
G01X0028120Y-049065D01*
G01X0027983Y-049065D01*
G01X0027857Y-049117D01*
G01X0027760Y-049214D01*
G01X0027707Y-049340D01*
G01X0027707Y-049477D01*
G01X0027759Y-049603D01*
G01X0027856Y-049700D01*
G01X0027949Y-049739D01*
G01X0028041Y-049831D01*
G01X0028041Y-051304D01*
G01X0028010Y-051291D01*
G01X0027897Y-051291D01*
G01X0027793Y-051334D01*
G01X0027756Y-051371D01*
G01X0027720Y-051335D01*
G01X0027616Y-051291D01*
G01X0027503Y-051291D01*
G01X0027399Y-051334D01*
G01X0027319Y-051414D01*
G01X0027275Y-051518D01*
G01X0027275Y-051631D01*
G01X0027302Y-051696D01*
G01X0027302Y-052452D01*
G01X0027058Y-052696D01*
G01X0024538Y-052696D01*
G01X0024538Y-042851D01*
G01X0024234Y-042547D01*
G01X0024163Y-042618D01*
G01X0024163Y-042476D01*
G01X0023859Y-042172D01*
G01X0023766Y-042197D01*
G01X0023694Y-042398D01*
G01X0023706Y-042610D01*
G01X0023766Y-042755D01*
G01X0023859Y-042780D01*
G01X0024163Y-042476D01*
G01X0024163Y-042618D01*
G01X0023930Y-042851D01*
G01X0023955Y-042944D01*
G01X0024156Y-043016D01*
G01X0024368Y-043004D01*
G01X0024513Y-042944D01*
G01X0024538Y-042851D01*
G01X0024538Y-052696D01*
G01X0023531Y-052696D01*
G01X0023385Y-052549D01*
G01X0023385Y-040697D01*
G01X0022935Y-040248D01*
G01X0022864Y-040318D01*
G01X0022864Y-040177D01*
G01X0022415Y-039727D01*
G01X0022301Y-039777D01*
G01X0022196Y-040050D01*
G01X0022204Y-040342D01*
G01X0022301Y-040577D01*
G01X0022415Y-040627D01*
G01X0022864Y-040177D01*
G01X0022864Y-040318D01*
G01X0022485Y-040697D01*
G01X0022535Y-040811D01*
G01X0022808Y-040916D01*
G01X0023100Y-040908D01*
G01X0023335Y-040811D01*
G01X0023385Y-040697D01*
G01X0023385Y-052549D01*
G01X0022304Y-051468D01*
G01X0022304Y-051150D01*
G01X0022364Y-051211D01*
G01X0022541Y-051285D01*
G01X0022733Y-051285D01*
G01X0022910Y-051212D01*
G01X0023046Y-051077D01*
G01X0023120Y-050900D01*
G01X0023120Y-050708D01*
G01X0023047Y-050531D01*
G01X0022912Y-050395D01*
G01X0022735Y-050321D01*
G01X0022543Y-050321D01*
G01X0022366Y-050394D01*
G01X0022304Y-050455D01*
G01X0022304Y-049150D01*
G01X0022364Y-049211D01*
G01X0022541Y-049285D01*
G01X0022733Y-049285D01*
G01X0022910Y-049212D01*
G01X0023046Y-049077D01*
G01X0023120Y-048900D01*
G01X0023120Y-048708D01*
G01X0023047Y-048531D01*
G01X0022912Y-048395D01*
G01X0022735Y-048321D01*
G01X0022543Y-048321D01*
G01X0022366Y-048394D01*
G01X0022304Y-048455D01*
G01X0022304Y-047244D01*
G01X0022304Y-046760D01*
G01X0022930Y-046133D01*
G01X0022995Y-046107D01*
G01X0023075Y-046027D01*
G01X0023119Y-045923D01*
G01X0023119Y-045810D01*
G01X0023076Y-045706D01*
G01X0022996Y-045626D01*
G01X0022892Y-045582D01*
G01X0022779Y-045582D01*
G01X0022675Y-045625D01*
G01X0022595Y-045705D01*
G01X0022567Y-045770D01*
G01X0021911Y-046426D01*
G01X0021911Y-046365D01*
G01X0022142Y-046133D01*
G01X0022207Y-046107D01*
G01X0022287Y-046027D01*
G01X0022331Y-045923D01*
G01X0022331Y-045810D01*
G01X0022288Y-045706D01*
G01X0022208Y-045626D01*
G01X0022104Y-045582D01*
G01X0021991Y-045582D01*
G01X0021887Y-045625D01*
G01X0021807Y-045705D01*
G01X0021779Y-045770D01*
G01X0021486Y-046063D01*
G01X0021486Y-034871D01*
G01X0040718Y-034871D01*
G01X0040718Y-054104D01*
G01X0040718Y-054104D01*
G37*
G54D21*
G01X0040718Y-054104D02*
G01X0040254Y-054104D01*
G01X0040254Y-054104D02*
G01X0040254Y-053065D01*
G01X0040254Y-053065D02*
G01X0040254Y-052841D01*
G01X0040254Y-052841D02*
G01X0040253Y-052687D01*
G01X0040253Y-052687D02*
G01X0040253Y-052588D01*
G01X0040253Y-052588D02*
G01X0040215Y-052497D01*
G01X0040215Y-052497D02*
G01X0040145Y-052427D01*
G01X0040145Y-052427D02*
G01X0040125Y-052418D01*
G01X0040125Y-052418D02*
G01X0040125Y-039847D01*
G01X0040125Y-039847D02*
G01X0040114Y-039627D01*
G01X0040114Y-039627D02*
G01X0040089Y-039566D01*
G01X0040089Y-039566D02*
G01X0040089Y-038869D01*
G01X0040089Y-038869D02*
G01X0040089Y-038661D01*
G01X0040089Y-038661D02*
G01X0040010Y-038469D01*
G01X0040010Y-038469D02*
G01X0039863Y-038322D01*
G01X0039863Y-038322D02*
G01X0039724Y-038263D01*
G01X0039724Y-038263D02*
G01X0039862Y-038207D01*
G01X0039862Y-038207D02*
G01X0040009Y-038060D01*
G01X0040009Y-038060D02*
G01X0040089Y-037869D01*
G01X0040089Y-037869D02*
G01X0040089Y-037661D01*
G01X0040089Y-037661D02*
G01X0040010Y-037469D01*
G01X0040010Y-037469D02*
G01X0039863Y-037322D01*
G01X0039863Y-037322D02*
G01X0039672Y-037242D01*
G01X0039672Y-037242D02*
G01X0039464Y-037242D01*
G01X0039464Y-037242D02*
G01X0039272Y-037321D01*
G01X0039272Y-037321D02*
G01X0039125Y-037468D01*
G01X0039125Y-037468D02*
G01X0039108Y-037507D01*
G01X0039108Y-037507D02*
G01X0038811Y-037507D01*
G01X0038811Y-037507D02*
G01X0038713Y-037527D01*
G01X0038713Y-037527D02*
G01X0038629Y-037582D01*
G01X0038629Y-037582D02*
G01X0038627Y-037584D01*
G01X0038627Y-037584D02*
G01X0038007Y-038204D01*
G01X0038007Y-038204D02*
G01X0037952Y-038288D01*
G01X0037952Y-038288D02*
G01X0037932Y-038386D01*
G01X0037932Y-038386D02*
G01X0037932Y-039854D01*
G01X0037932Y-039854D02*
G01X0037220Y-040566D01*
G01X0037220Y-040566D02*
G01X0037165Y-040650D01*
G01X0037165Y-040650D02*
G01X0037145Y-040748D01*
G01X0037145Y-040748D02*
G01X0037145Y-041035D01*
G01X0037145Y-041035D02*
G01X0037107Y-041072D01*
G01X0037107Y-041072D02*
G01X0037065Y-041055D01*
G01X0037065Y-041055D02*
G01X0036952Y-041055D01*
G01X0036952Y-041055D02*
G01X0036848Y-041098D01*
G01X0036848Y-041098D02*
G01X0036768Y-041178D01*
G01X0036768Y-041178D02*
G01X0036724Y-041282D01*
G01X0036724Y-041282D02*
G01X0036724Y-041395D01*
G01X0036724Y-041395D02*
G01X0036767Y-041499D01*
G01X0036767Y-041499D02*
G01X0036847Y-041579D01*
G01X0036847Y-041579D02*
G01X0036951Y-041623D01*
G01X0036951Y-041623D02*
G01X0037064Y-041623D01*
G01X0037064Y-041623D02*
G01X0037129Y-041596D01*
G01X0037129Y-041596D02*
G01X0037205Y-041596D01*
G01X0037205Y-041596D02*
G01X0037303Y-041576D01*
G01X0037303Y-041576D02*
G01X0037387Y-041521D01*
G01X0037387Y-041521D02*
G01X0037581Y-041325D01*
G01X0037581Y-041325D02*
G01X0037583Y-041324D01*
G01X0037583Y-041324D02*
G01X0037584Y-041324D01*
G01X0037584Y-041324D02*
G01X0037638Y-041241D01*
G01X0037638Y-041241D02*
G01X0037639Y-041240D01*
G01X0037639Y-041240D02*
G01X0037648Y-041191D01*
G01X0037648Y-041191D02*
G01X0037738Y-041229D01*
G01X0037738Y-041229D02*
G01X0037851Y-041229D01*
G01X0037851Y-041229D02*
G01X0037955Y-041186D01*
G01X0037955Y-041186D02*
G01X0038035Y-041106D01*
G01X0038035Y-041106D02*
G01X0038062Y-041041D01*
G01X0038062Y-041041D02*
G01X0038762Y-040340D01*
G01X0038762Y-040340D02*
G01X0038764Y-040339D01*
G01X0038764Y-040339D02*
G01X0038765Y-040339D01*
G01X0038765Y-040339D02*
G01X0038797Y-040288D01*
G01X0038797Y-040288D02*
G01X0038820Y-040256D01*
G01X0038820Y-040256D02*
G01X0038820Y-040255D01*
G01X0038820Y-040255D02*
G01X0038840Y-040157D01*
G01X0038840Y-040157D02*
G01X0038840Y-039279D01*
G01X0038840Y-039279D02*
G01X0039098Y-039021D01*
G01X0039098Y-039021D02*
G01X0039108Y-039021D01*
G01X0039108Y-039021D02*
G01X0039124Y-039059D01*
G01X0039124Y-039059D02*
G01X0039271Y-039206D01*
G01X0039271Y-039206D02*
G01X0039363Y-039244D01*
G01X0039363Y-039244D02*
G01X0039277Y-039280D01*
G01X0039277Y-039280D02*
G01X0039249Y-039375D01*
G01X0039249Y-039375D02*
G01X0039567Y-039693D01*
G01X0039567Y-039693D02*
G01X0039885Y-039375D01*
G01X0039885Y-039375D02*
G01X0039857Y-039280D01*
G01X0039857Y-039280D02*
G01X0039764Y-039247D01*
G01X0039764Y-039247D02*
G01X0039862Y-039207D01*
G01X0039862Y-039207D02*
G01X0040009Y-039060D01*
G01X0040009Y-039060D02*
G01X0040089Y-038869D01*
G01X0040089Y-038869D02*
G01X0040089Y-039566D01*
G01X0040089Y-039566D02*
G01X0040051Y-039474D01*
G01X0040051Y-039474D02*
G01X0039956Y-039446D01*
G01X0039956Y-039446D02*
G01X0039638Y-039764D01*
G01X0039638Y-039764D02*
G01X0039956Y-040082D01*
G01X0039956Y-040082D02*
G01X0040051Y-040054D01*
G01X0040051Y-040054D02*
G01X0040125Y-039847D01*
G01X0040125Y-039847D02*
G01X0040125Y-052418D01*
G01X0040125Y-052418D02*
G01X0040089Y-052403D01*
G01X0040089Y-052403D02*
G01X0040089Y-042120D01*
G01X0040089Y-042120D02*
G01X0040089Y-042038D01*
G01X0040089Y-042038D02*
G01X0040089Y-041408D01*
G01X0040089Y-041408D02*
G01X0040058Y-041332D01*
G01X0040058Y-041332D02*
G01X0039999Y-041274D01*
G01X0039999Y-041274D02*
G01X0039923Y-041242D01*
G01X0039923Y-041242D02*
G01X0039841Y-041242D01*
G01X0039841Y-041242D02*
G01X0039776Y-041242D01*
G01X0039776Y-041242D02*
G01X0039862Y-041207D01*
G01X0039862Y-041207D02*
G01X0040009Y-041060D01*
G01X0040009Y-041060D02*
G01X0040089Y-040869D01*
G01X0040089Y-040869D02*
G01X0040089Y-040661D01*
G01X0040089Y-040661D02*
G01X0040010Y-040469D01*
G01X0040010Y-040469D02*
G01X0039863Y-040322D01*
G01X0039863Y-040322D02*
G01X0039770Y-040283D01*
G01X0039770Y-040283D02*
G01X0039857Y-040248D01*
G01X0039857Y-040248D02*
G01X0039885Y-040153D01*
G01X0039885Y-040153D02*
G01X0039567Y-039835D01*
G01X0039567Y-039835D02*
G01X0039496Y-039906D01*
G01X0039496Y-039906D02*
G01X0039496Y-039764D01*
G01X0039496Y-039764D02*
G01X0039178Y-039446D01*
G01X0039178Y-039446D02*
G01X0039083Y-039474D01*
G01X0039083Y-039474D02*
G01X0039009Y-039681D01*
G01X0039009Y-039681D02*
G01X0039020Y-039901D01*
G01X0039020Y-039901D02*
G01X0039083Y-040054D01*
G01X0039083Y-040054D02*
G01X0039178Y-040082D01*
G01X0039178Y-040082D02*
G01X0039496Y-039764D01*
G01X0039496Y-039764D02*
G01X0039496Y-039906D01*
G01X0039496Y-039906D02*
G01X0039249Y-040153D01*
G01X0039249Y-040153D02*
G01X0039277Y-040248D01*
G01X0039277Y-040248D02*
G01X0039369Y-040280D01*
G01X0039369Y-040280D02*
G01X0039272Y-040321D01*
G01X0039272Y-040321D02*
G01X0039125Y-040468D01*
G01X0039125Y-040468D02*
G01X0039045Y-040659D01*
G01X0039045Y-040659D02*
G01X0039045Y-040867D01*
G01X0039045Y-040867D02*
G01X0039124Y-041059D01*
G01X0039124Y-041059D02*
G01X0039271Y-041206D01*
G01X0039271Y-041206D02*
G01X0039356Y-041242D01*
G01X0039356Y-041242D02*
G01X0039211Y-041242D01*
G01X0039211Y-041242D02*
G01X0039135Y-041273D01*
G01X0039135Y-041273D02*
G01X0039077Y-041332D01*
G01X0039077Y-041332D02*
G01X0039045Y-041408D01*
G01X0039045Y-041408D02*
G01X0039045Y-041490D01*
G01X0039045Y-041490D02*
G01X0039045Y-042120D01*
G01X0039045Y-042120D02*
G01X0039076Y-042196D01*
G01X0039076Y-042196D02*
G01X0039135Y-042254D01*
G01X0039135Y-042254D02*
G01X0039211Y-042286D01*
G01X0039211Y-042286D02*
G01X0039293Y-042286D01*
G01X0039293Y-042286D02*
G01X0039923Y-042286D01*
G01X0039923Y-042286D02*
G01X0039999Y-042255D01*
G01X0039999Y-042255D02*
G01X0040057Y-042196D01*
G01X0040057Y-042196D02*
G01X0040089Y-042120D01*
G01X0040089Y-042120D02*
G01X0040089Y-052403D01*
G01X0040089Y-052403D02*
G01X0040053Y-052389D01*
G01X0040053Y-052389D02*
G01X0039801Y-052388D01*
G01X0039801Y-052388D02*
G01X0039739Y-052450D01*
G01X0039739Y-052450D02*
G01X0039739Y-052903D01*
G01X0039739Y-052903D02*
G01X0040192Y-052903D01*
G01X0040192Y-052903D02*
G01X0040254Y-052841D01*
G01X0040254Y-052841D02*
G01X0040254Y-053065D01*
G01X0040254Y-053065D02*
G01X0040192Y-053003D01*
G01X0040192Y-053003D02*
G01X0039739Y-053003D01*
G01X0039739Y-053003D02*
G01X0039739Y-053456D01*
G01X0039739Y-053456D02*
G01X0039801Y-053518D01*
G01X0039801Y-053518D02*
G01X0040053Y-053517D01*
G01X0040053Y-053517D02*
G01X0040145Y-053479D01*
G01X0040145Y-053479D02*
G01X0040215Y-053409D01*
G01X0040215Y-053409D02*
G01X0040253Y-053318D01*
G01X0040253Y-053318D02*
G01X0040253Y-053219D01*
G01X0040253Y-053219D02*
G01X0040254Y-053065D01*
G01X0040254Y-053065D02*
G01X0040254Y-054104D01*
G01X0040254Y-054104D02*
G01X0039639Y-054104D01*
G01X0039639Y-054104D02*
G01X0039639Y-053456D01*
G01X0039639Y-053456D02*
G01X0039639Y-053053D01*
G01X0039639Y-053053D02*
G01X0039639Y-053003D01*
G01X0039639Y-053003D02*
G01X0039639Y-052903D01*
G01X0039639Y-052903D02*
G01X0039639Y-052853D01*
G01X0039639Y-052853D02*
G01X0039639Y-052450D01*
G01X0039639Y-052450D02*
G01X0039577Y-052388D01*
G01X0039577Y-052388D02*
G01X0039325Y-052389D01*
G01X0039325Y-052389D02*
G01X0039233Y-052427D01*
G01X0039233Y-052427D02*
G01X0039163Y-052497D01*
G01X0039163Y-052497D02*
G01X0039125Y-052588D01*
G01X0039125Y-052588D02*
G01X0039125Y-052651D01*
G01X0039125Y-052651D02*
G01X0038985Y-052511D01*
G01X0038985Y-052511D02*
G01X0038794Y-052431D01*
G01X0038794Y-052431D02*
G01X0038622Y-052431D01*
G01X0038622Y-052431D02*
G01X0036674Y-050483D01*
G01X0036674Y-050483D02*
G01X0036674Y-048939D01*
G01X0036674Y-048939D02*
G01X0036701Y-048876D01*
G01X0036701Y-048876D02*
G01X0036701Y-048763D01*
G01X0036701Y-048763D02*
G01X0036674Y-048697D01*
G01X0036674Y-048697D02*
G01X0036674Y-045276D01*
G01X0036674Y-045276D02*
G01X0036674Y-044685D01*
G01X0036674Y-044685D02*
G01X0036654Y-044587D01*
G01X0036654Y-044587D02*
G01X0036599Y-044503D01*
G01X0036599Y-044503D02*
G01X0034706Y-042610D01*
G01X0034706Y-042610D02*
G01X0034706Y-042354D01*
G01X0034706Y-042354D02*
G01X0034771Y-042419D01*
G01X0034771Y-042419D02*
G01X0034798Y-042483D01*
G01X0034798Y-042483D02*
G01X0034878Y-042563D01*
G01X0034878Y-042563D02*
G01X0034982Y-042607D01*
G01X0034982Y-042607D02*
G01X0035095Y-042607D01*
G01X0035095Y-042607D02*
G01X0035199Y-042564D01*
G01X0035199Y-042564D02*
G01X0035279Y-042484D01*
G01X0035279Y-042484D02*
G01X0035323Y-042380D01*
G01X0035323Y-042380D02*
G01X0035323Y-042267D01*
G01X0035323Y-042267D02*
G01X0035280Y-042163D01*
G01X0035280Y-042163D02*
G01X0035200Y-042083D01*
G01X0035200Y-042083D02*
G01X0035135Y-042055D01*
G01X0035135Y-042055D02*
G01X0035100Y-042020D01*
G01X0035100Y-042020D02*
G01X0035100Y-040030D01*
G01X0035100Y-040030D02*
G01X0035525Y-040455D01*
G01X0035525Y-040455D02*
G01X0035527Y-040458D01*
G01X0035527Y-040458D02*
G01X0035610Y-040512D01*
G01X0035610Y-040512D02*
G01X0035611Y-040513D01*
G01X0035611Y-040513D02*
G01X0035688Y-040528D01*
G01X0035688Y-040528D02*
G01X0035708Y-040533D01*
G01X0035708Y-040533D02*
G01X0035708Y-040532D01*
G01X0035708Y-040532D02*
G01X0035709Y-040533D01*
G01X0035709Y-040533D02*
G01X0036690Y-040533D01*
G01X0036690Y-040533D02*
G01X0036754Y-040560D01*
G01X0036754Y-040560D02*
G01X0036867Y-040560D01*
G01X0036867Y-040560D02*
G01X0036971Y-040517D01*
G01X0036971Y-040517D02*
G01X0037051Y-040437D01*
G01X0037051Y-040437D02*
G01X0037095Y-040333D01*
G01X0037095Y-040333D02*
G01X0037095Y-040220D01*
G01X0037095Y-040220D02*
G01X0037058Y-040130D01*
G01X0037058Y-040130D02*
G01X0037058Y-036583D01*
G01X0037058Y-036583D02*
G01X0037047Y-036363D01*
G01X0037047Y-036363D02*
G01X0036984Y-036210D01*
G01X0036984Y-036210D02*
G01X0036889Y-036182D01*
G01X0036889Y-036182D02*
G01X0036571Y-036500D01*
G01X0036571Y-036500D02*
G01X0036889Y-036818D01*
G01X0036889Y-036818D02*
G01X0036984Y-036790D01*
G01X0036984Y-036790D02*
G01X0037058Y-036583D01*
G01X0037058Y-036583D02*
G01X0037058Y-040130D01*
G01X0037058Y-040130D02*
G01X0037052Y-040116D01*
G01X0037052Y-040116D02*
G01X0037013Y-040077D01*
G01X0037013Y-040077D02*
G01X0037056Y-039978D01*
G01X0037056Y-039978D02*
G01X0037056Y-039865D01*
G01X0037056Y-039865D02*
G01X0037013Y-039761D01*
G01X0037013Y-039761D02*
G01X0036933Y-039681D01*
G01X0036933Y-039681D02*
G01X0036829Y-039637D01*
G01X0036829Y-039637D02*
G01X0036818Y-039637D01*
G01X0036818Y-039637D02*
G01X0036818Y-036889D01*
G01X0036818Y-036889D02*
G01X0036500Y-036571D01*
G01X0036500Y-036571D02*
G01X0036182Y-036889D01*
G01X0036182Y-036889D02*
G01X0036210Y-036984D01*
G01X0036210Y-036984D02*
G01X0036417Y-037058D01*
G01X0036417Y-037058D02*
G01X0036637Y-037047D01*
G01X0036637Y-037047D02*
G01X0036790Y-036984D01*
G01X0036790Y-036984D02*
G01X0036818Y-036889D01*
G01X0036818Y-036889D02*
G01X0036818Y-039637D01*
G01X0036818Y-039637D02*
G01X0036716Y-039637D01*
G01X0036716Y-039637D02*
G01X0036650Y-039664D01*
G01X0036650Y-039664D02*
G01X0036050Y-039664D01*
G01X0036050Y-039664D02*
G01X0035769Y-039382D01*
G01X0035769Y-039382D02*
G01X0035769Y-039213D01*
G01X0035769Y-039213D02*
G01X0035769Y-038465D01*
G01X0035769Y-038465D02*
G01X0035768Y-038464D01*
G01X0035768Y-038464D02*
G01X0035769Y-038464D01*
G01X0035769Y-038464D02*
G01X0035764Y-038444D01*
G01X0035764Y-038444D02*
G01X0035749Y-038367D01*
G01X0035749Y-038367D02*
G01X0035748Y-038366D01*
G01X0035748Y-038366D02*
G01X0035694Y-038283D01*
G01X0035694Y-038283D02*
G01X0035691Y-038281D01*
G01X0035691Y-038281D02*
G01X0035064Y-037653D01*
G01X0035064Y-037653D02*
G01X0034980Y-037598D01*
G01X0034980Y-037598D02*
G01X0034882Y-037578D01*
G01X0034882Y-037578D02*
G01X0034403Y-037578D01*
G01X0034403Y-037578D02*
G01X0034253Y-037416D01*
G01X0034253Y-037416D02*
G01X0034253Y-036962D01*
G01X0034253Y-036962D02*
G01X0034395Y-037022D01*
G01X0034395Y-037022D02*
G01X0034603Y-037022D01*
G01X0034603Y-037022D02*
G01X0034795Y-036943D01*
G01X0034795Y-036943D02*
G01X0034942Y-036796D01*
G01X0034942Y-036796D02*
G01X0035000Y-036657D01*
G01X0035000Y-036657D02*
G01X0035057Y-036795D01*
G01X0035057Y-036795D02*
G01X0035204Y-036942D01*
G01X0035204Y-036942D02*
G01X0035395Y-037022D01*
G01X0035395Y-037022D02*
G01X0035603Y-037022D01*
G01X0035603Y-037022D02*
G01X0035795Y-036943D01*
G01X0035795Y-036943D02*
G01X0035942Y-036796D01*
G01X0035942Y-036796D02*
G01X0035980Y-036703D01*
G01X0035980Y-036703D02*
G01X0036016Y-036790D01*
G01X0036016Y-036790D02*
G01X0036111Y-036818D01*
G01X0036111Y-036818D02*
G01X0036429Y-036500D01*
G01X0036429Y-036500D02*
G01X0036111Y-036182D01*
G01X0036111Y-036182D02*
G01X0036016Y-036210D01*
G01X0036016Y-036210D02*
G01X0035983Y-036302D01*
G01X0035983Y-036302D02*
G01X0035943Y-036205D01*
G01X0035943Y-036205D02*
G01X0035796Y-036058D01*
G01X0035796Y-036058D02*
G01X0035657Y-035999D01*
G01X0035657Y-035999D02*
G01X0035795Y-035943D01*
G01X0035795Y-035943D02*
G01X0035942Y-035796D01*
G01X0035942Y-035796D02*
G01X0036000Y-035657D01*
G01X0036000Y-035657D02*
G01X0036057Y-035795D01*
G01X0036057Y-035795D02*
G01X0036204Y-035942D01*
G01X0036204Y-035942D02*
G01X0036296Y-035980D01*
G01X0036296Y-035980D02*
G01X0036210Y-036016D01*
G01X0036210Y-036016D02*
G01X0036182Y-036111D01*
G01X0036182Y-036111D02*
G01X0036500Y-036429D01*
G01X0036500Y-036429D02*
G01X0036818Y-036111D01*
G01X0036818Y-036111D02*
G01X0036790Y-036016D01*
G01X0036790Y-036016D02*
G01X0036697Y-035983D01*
G01X0036697Y-035983D02*
G01X0036795Y-035943D01*
G01X0036795Y-035943D02*
G01X0036942Y-035796D01*
G01X0036942Y-035796D02*
G01X0037022Y-035605D01*
G01X0037022Y-035605D02*
G01X0037022Y-035397D01*
G01X0037022Y-035397D02*
G01X0036943Y-035205D01*
G01X0036943Y-035205D02*
G01X0036796Y-035058D01*
G01X0036796Y-035058D02*
G01X0036605Y-034978D01*
G01X0036605Y-034978D02*
G01X0036397Y-034978D01*
G01X0036397Y-034978D02*
G01X0036205Y-035057D01*
G01X0036205Y-035057D02*
G01X0036058Y-035204D01*
G01X0036058Y-035204D02*
G01X0035999Y-035342D01*
G01X0035999Y-035342D02*
G01X0035943Y-035205D01*
G01X0035943Y-035205D02*
G01X0035796Y-035058D01*
G01X0035796Y-035058D02*
G01X0035605Y-034978D01*
G01X0035605Y-034978D02*
G01X0035397Y-034978D01*
G01X0035397Y-034978D02*
G01X0035205Y-035057D01*
G01X0035205Y-035057D02*
G01X0035058Y-035204D01*
G01X0035058Y-035204D02*
G01X0034999Y-035342D01*
G01X0034999Y-035342D02*
G01X0034943Y-035205D01*
G01X0034943Y-035205D02*
G01X0034796Y-035058D01*
G01X0034796Y-035058D02*
G01X0034605Y-034978D01*
G01X0034605Y-034978D02*
G01X0034397Y-034978D01*
G01X0034397Y-034978D02*
G01X0034205Y-035057D01*
G01X0034205Y-035057D02*
G01X0034058Y-035204D01*
G01X0034058Y-035204D02*
G01X0033999Y-035342D01*
G01X0033999Y-035342D02*
G01X0033943Y-035205D01*
G01X0033943Y-035205D02*
G01X0033796Y-035058D01*
G01X0033796Y-035058D02*
G01X0033605Y-034978D01*
G01X0033605Y-034978D02*
G01X0033397Y-034978D01*
G01X0033397Y-034978D02*
G01X0033205Y-035057D01*
G01X0033205Y-035057D02*
G01X0033058Y-035204D01*
G01X0033058Y-035204D02*
G01X0033022Y-035289D01*
G01X0033022Y-035289D02*
G01X0033022Y-035144D01*
G01X0033022Y-035144D02*
G01X0032991Y-035068D01*
G01X0032991Y-035068D02*
G01X0032932Y-035010D01*
G01X0032932Y-035010D02*
G01X0032856Y-034978D01*
G01X0032856Y-034978D02*
G01X0032774Y-034978D01*
G01X0032774Y-034978D02*
G01X0032144Y-034978D01*
G01X0032144Y-034978D02*
G01X0032068Y-035009D01*
G01X0032068Y-035009D02*
G01X0032010Y-035068D01*
G01X0032010Y-035068D02*
G01X0031978Y-035144D01*
G01X0031978Y-035144D02*
G01X0031978Y-035195D01*
G01X0031978Y-035195D02*
G01X0031626Y-035195D01*
G01X0031626Y-035195D02*
G01X0031625Y-035195D01*
G01X0031625Y-035195D02*
G01X0031509Y-035218D01*
G01X0031509Y-035218D02*
G01X0031410Y-035284D01*
G01X0031410Y-035284D02*
G01X0031408Y-035286D01*
G01X0031408Y-035286D02*
G01X0030394Y-036300D01*
G01X0030394Y-036300D02*
G01X0030328Y-036399D01*
G01X0030328Y-036399D02*
G01X0030305Y-036516D01*
G01X0030305Y-036516D02*
G01X0030305Y-041830D01*
G01X0030305Y-041830D02*
G01X0030328Y-041947D01*
G01X0030328Y-041947D02*
G01X0030394Y-042046D01*
G01X0030394Y-042046D02*
G01X0030870Y-042521D01*
G01X0030870Y-042521D02*
G01X0030909Y-042615D01*
G01X0030909Y-042615D02*
G01X0031006Y-042712D01*
G01X0031006Y-042712D02*
G01X0031099Y-042751D01*
G01X0031099Y-042751D02*
G01X0033750Y-045402D01*
G01X0033750Y-045402D02*
G01X0033750Y-047574D01*
G01X0033750Y-047574D02*
G01X0033711Y-047667D01*
G01X0033711Y-047667D02*
G01X0033711Y-047804D01*
G01X0033711Y-047804D02*
G01X0033763Y-047930D01*
G01X0033763Y-047930D02*
G01X0033860Y-048027D01*
G01X0033860Y-048027D02*
G01X0033986Y-048080D01*
G01X0033986Y-048080D02*
G01X0034123Y-048080D01*
G01X0034123Y-048080D02*
G01X0034249Y-048028D01*
G01X0034249Y-048028D02*
G01X0034346Y-047931D01*
G01X0034346Y-047931D02*
G01X0034399Y-047805D01*
G01X0034399Y-047805D02*
G01X0034399Y-047668D01*
G01X0034399Y-047668D02*
G01X0034360Y-047573D01*
G01X0034360Y-047573D02*
G01X0034360Y-045275D01*
G01X0034360Y-045275D02*
G01X0034337Y-045158D01*
G01X0034337Y-045158D02*
G01X0034271Y-045059D01*
G01X0034271Y-045059D02*
G01X0031530Y-042318D01*
G01X0031530Y-042318D02*
G01X0031493Y-042227D01*
G01X0031493Y-042227D02*
G01X0031396Y-042130D01*
G01X0031396Y-042130D02*
G01X0031301Y-042090D01*
G01X0031301Y-042090D02*
G01X0030915Y-041703D01*
G01X0030915Y-041703D02*
G01X0030915Y-036642D01*
G01X0030915Y-036642D02*
G01X0031752Y-035805D01*
G01X0031752Y-035805D02*
G01X0031978Y-035805D01*
G01X0031978Y-035805D02*
G01X0031978Y-035856D01*
G01X0031978Y-035856D02*
G01X0032009Y-035932D01*
G01X0032009Y-035932D02*
G01X0032068Y-035990D01*
G01X0032068Y-035990D02*
G01X0032090Y-035999D01*
G01X0032090Y-035999D02*
G01X0032068Y-036009D01*
G01X0032068Y-036009D02*
G01X0032010Y-036068D01*
G01X0032010Y-036068D02*
G01X0031978Y-036144D01*
G01X0031978Y-036144D02*
G01X0031978Y-036226D01*
G01X0031978Y-036226D02*
G01X0031978Y-036856D01*
G01X0031978Y-036856D02*
G01X0032009Y-036932D01*
G01X0032009Y-036932D02*
G01X0032068Y-036990D01*
G01X0032068Y-036990D02*
G01X0032144Y-037022D01*
G01X0032144Y-037022D02*
G01X0032226Y-037022D01*
G01X0032226Y-037022D02*
G01X0032744Y-037022D01*
G01X0032744Y-037022D02*
G01X0032790Y-037091D01*
G01X0032790Y-037091D02*
G01X0033970Y-038270D01*
G01X0033970Y-038270D02*
G01X0033972Y-038273D01*
G01X0033972Y-038273D02*
G01X0034055Y-038327D01*
G01X0034055Y-038327D02*
G01X0034056Y-038328D01*
G01X0034056Y-038328D02*
G01X0034154Y-038348D01*
G01X0034154Y-038348D02*
G01X0034283Y-038348D01*
G01X0034283Y-038348D02*
G01X0034209Y-038422D01*
G01X0034209Y-038422D02*
G01X0034165Y-038526D01*
G01X0034165Y-038526D02*
G01X0034165Y-038639D01*
G01X0034165Y-038639D02*
G01X0034192Y-038704D01*
G01X0034192Y-038704D02*
G01X0034192Y-038922D01*
G01X0034192Y-038922D02*
G01X0034112Y-038889D01*
G01X0034112Y-038889D02*
G01X0033999Y-038889D01*
G01X0033999Y-038889D02*
G01X0033895Y-038932D01*
G01X0033895Y-038932D02*
G01X0033815Y-039012D01*
G01X0033815Y-039012D02*
G01X0033771Y-039116D01*
G01X0033771Y-039116D02*
G01X0033771Y-039229D01*
G01X0033771Y-039229D02*
G01X0033798Y-039294D01*
G01X0033798Y-039294D02*
G01X0033798Y-042913D01*
G01X0033798Y-042913D02*
G01X0033818Y-043011D01*
G01X0033818Y-043011D02*
G01X0033873Y-043095D01*
G01X0033873Y-043095D02*
G01X0035767Y-044988D01*
G01X0035767Y-044988D02*
G01X0035767Y-045276D01*
G01X0035767Y-045276D02*
G01X0035767Y-049682D01*
G01X0035767Y-049682D02*
G01X0035740Y-049746D01*
G01X0035740Y-049746D02*
G01X0035740Y-049859D01*
G01X0035740Y-049859D02*
G01X0035767Y-049924D01*
G01X0035767Y-049924D02*
G01X0035767Y-050788D01*
G01X0035767Y-050788D02*
G01X0035787Y-050886D01*
G01X0035787Y-050886D02*
G01X0035842Y-050970D01*
G01X0035842Y-050970D02*
G01X0037388Y-052515D01*
G01X0037388Y-052515D02*
G01X0037247Y-052657D01*
G01X0037247Y-052657D02*
G01X0037188Y-052795D01*
G01X0037188Y-052795D02*
G01X0037132Y-052658D01*
G01X0037132Y-052658D02*
G01X0036985Y-052511D01*
G01X0036985Y-052511D02*
G01X0036794Y-052431D01*
G01X0036794Y-052431D02*
G01X0036586Y-052431D01*
G01X0036586Y-052431D02*
G01X0036394Y-052510D01*
G01X0036394Y-052510D02*
G01X0036247Y-052657D01*
G01X0036247Y-052657D02*
G01X0036167Y-052848D01*
G01X0036167Y-052848D02*
G01X0036167Y-053056D01*
G01X0036167Y-053056D02*
G01X0036246Y-053248D01*
G01X0036246Y-053248D02*
G01X0036393Y-053395D01*
G01X0036393Y-053395D02*
G01X0036584Y-053475D01*
G01X0036584Y-053475D02*
G01X0036792Y-053475D01*
G01X0036792Y-053475D02*
G01X0036984Y-053396D01*
G01X0036984Y-053396D02*
G01X0037131Y-053249D01*
G01X0037131Y-053249D02*
G01X0037189Y-053110D01*
G01X0037189Y-053110D02*
G01X0037246Y-053248D01*
G01X0037246Y-053248D02*
G01X0037393Y-053395D01*
G01X0037393Y-053395D02*
G01X0037584Y-053475D01*
G01X0037584Y-053475D02*
G01X0037792Y-053475D01*
G01X0037792Y-053475D02*
G01X0037984Y-053396D01*
G01X0037984Y-053396D02*
G01X0038131Y-053249D01*
G01X0038131Y-053249D02*
G01X0038189Y-053110D01*
G01X0038189Y-053110D02*
G01X0038246Y-053248D01*
G01X0038246Y-053248D02*
G01X0038393Y-053395D01*
G01X0038393Y-053395D02*
G01X0038584Y-053475D01*
G01X0038584Y-053475D02*
G01X0038792Y-053475D01*
G01X0038792Y-053475D02*
G01X0038984Y-053396D01*
G01X0038984Y-053396D02*
G01X0039125Y-053255D01*
G01X0039125Y-053255D02*
G01X0039125Y-053318D01*
G01X0039125Y-053318D02*
G01X0039163Y-053409D01*
G01X0039163Y-053409D02*
G01X0039233Y-053479D01*
G01X0039233Y-053479D02*
G01X0039325Y-053517D01*
G01X0039325Y-053517D02*
G01X0039577Y-053518D01*
G01X0039577Y-053518D02*
G01X0039639Y-053456D01*
G01X0039639Y-053456D02*
G01X0039639Y-054104D01*
G01X0039639Y-054104D02*
G01X0021486Y-054104D01*
G01X0021486Y-054104D02*
G01X0021486Y-051770D01*
G01X0021486Y-051770D02*
G01X0022946Y-053230D01*
G01X0022946Y-053230D02*
G01X0022948Y-053233D01*
G01X0022948Y-053233D02*
G01X0023143Y-053427D01*
G01X0023143Y-053427D02*
G01X0023145Y-053430D01*
G01X0023145Y-053430D02*
G01X0023228Y-053484D01*
G01X0023228Y-053484D02*
G01X0023229Y-053485D01*
G01X0023229Y-053485D02*
G01X0023327Y-053505D01*
G01X0023327Y-053505D02*
G01X0027362Y-053505D01*
G01X0027362Y-053505D02*
G01X0027460Y-053485D01*
G01X0027460Y-053485D02*
G01X0027544Y-053430D01*
G01X0027544Y-053430D02*
G01X0028132Y-052840D01*
G01X0028132Y-052840D02*
G01X0028134Y-052839D01*
G01X0028134Y-052839D02*
G01X0028135Y-052839D01*
G01X0028135Y-052839D02*
G01X0028189Y-052756D01*
G01X0028189Y-052756D02*
G01X0028190Y-052755D01*
G01X0028190Y-052755D02*
G01X0028205Y-052678D01*
G01X0028205Y-052678D02*
G01X0028210Y-052658D01*
G01X0028210Y-052658D02*
G01X0028209Y-052657D01*
G01X0028209Y-052657D02*
G01X0028210Y-052657D01*
G01X0028210Y-052657D02*
G01X0028210Y-051890D01*
G01X0028210Y-051890D02*
G01X0028244Y-051905D01*
G01X0028244Y-051905D02*
G01X0028524Y-052185D01*
G01X0028524Y-052185D02*
G01X0028623Y-052251D01*
G01X0028623Y-052251D02*
G01X0028740Y-052274D01*
G01X0028740Y-052274D02*
G01X0030350Y-052274D01*
G01X0030350Y-052274D02*
G01X0030443Y-052313D01*
G01X0030443Y-052313D02*
G01X0030580Y-052313D01*
G01X0030580Y-052313D02*
G01X0030706Y-052261D01*
G01X0030706Y-052261D02*
G01X0030803Y-052164D01*
G01X0030803Y-052164D02*
G01X0030856Y-052038D01*
G01X0030856Y-052038D02*
G01X0030856Y-051901D01*
G01X0030856Y-051901D02*
G01X0030804Y-051775D01*
G01X0030804Y-051775D02*
G01X0030707Y-051678D01*
G01X0030707Y-051678D02*
G01X0030581Y-051625D01*
G01X0030581Y-051625D02*
G01X0030444Y-051625D01*
G01X0030444Y-051625D02*
G01X0030349Y-051664D01*
G01X0030349Y-051664D02*
G01X0029772Y-051664D01*
G01X0029772Y-051664D02*
G01X0029772Y-040304D01*
G01X0029772Y-040304D02*
G01X0029764Y-040012D01*
G01X0029764Y-040012D02*
G01X0029667Y-039777D01*
G01X0029667Y-039777D02*
G01X0029553Y-039727D01*
G01X0029553Y-039727D02*
G01X0029483Y-039797D01*
G01X0029483Y-039797D02*
G01X0029483Y-039657D01*
G01X0029483Y-039657D02*
G01X0029433Y-039543D01*
G01X0029433Y-039543D02*
G01X0029160Y-039438D01*
G01X0029160Y-039438D02*
G01X0029085Y-039440D01*
G01X0029085Y-039440D02*
G01X0029198Y-039168D01*
G01X0029198Y-039168D02*
G01X0029198Y-038785D01*
G01X0029198Y-038785D02*
G01X0029098Y-038542D01*
G01X0029098Y-038542D02*
G01X0029098Y-037148D01*
G01X0029098Y-037148D02*
G01X0029098Y-036947D01*
G01X0029098Y-036947D02*
G01X0029021Y-036761D01*
G01X0029021Y-036761D02*
G01X0028879Y-036618D01*
G01X0028879Y-036618D02*
G01X0028693Y-036541D01*
G01X0028693Y-036541D02*
G01X0028492Y-036541D01*
G01X0028492Y-036541D02*
G01X0028306Y-036618D01*
G01X0028306Y-036618D02*
G01X0028163Y-036760D01*
G01X0028163Y-036760D02*
G01X0028111Y-036883D01*
G01X0028111Y-036883D02*
G01X0028064Y-036766D01*
G01X0028064Y-036766D02*
G01X0027970Y-036739D01*
G01X0027970Y-036739D02*
G01X0027900Y-036809D01*
G01X0027900Y-036809D02*
G01X0027900Y-036669D01*
G01X0027900Y-036669D02*
G01X0027873Y-036575D01*
G01X0027873Y-036575D02*
G01X0027671Y-036504D01*
G01X0027671Y-036504D02*
G01X0027458Y-036515D01*
G01X0027458Y-036515D02*
G01X0027311Y-036575D01*
G01X0027311Y-036575D02*
G01X0027284Y-036669D01*
G01X0027284Y-036669D02*
G01X0027592Y-036976D01*
G01X0027592Y-036976D02*
G01X0027900Y-036669D01*
G01X0027900Y-036669D02*
G01X0027900Y-036809D01*
G01X0027900Y-036809D02*
G01X0027663Y-037047D01*
G01X0027663Y-037047D02*
G01X0027970Y-037355D01*
G01X0027970Y-037355D02*
G01X0028064Y-037328D01*
G01X0028064Y-037328D02*
G01X0028108Y-037201D01*
G01X0028108Y-037201D02*
G01X0028163Y-037333D01*
G01X0028163Y-037333D02*
G01X0028305Y-037476D01*
G01X0028305Y-037476D02*
G01X0028491Y-037553D01*
G01X0028491Y-037553D02*
G01X0028692Y-037553D01*
G01X0028692Y-037553D02*
G01X0028878Y-037476D01*
G01X0028878Y-037476D02*
G01X0029021Y-037334D01*
G01X0029021Y-037334D02*
G01X0029098Y-037148D01*
G01X0029098Y-037148D02*
G01X0029098Y-038542D01*
G01X0029098Y-038542D02*
G01X0029052Y-038431D01*
G01X0029052Y-038431D02*
G01X0028781Y-038159D01*
G01X0028781Y-038159D02*
G01X0028426Y-038012D01*
G01X0028426Y-038012D02*
G01X0028043Y-038012D01*
G01X0028043Y-038012D02*
G01X0027900Y-038070D01*
G01X0027900Y-038070D02*
G01X0027900Y-037425D01*
G01X0027900Y-037425D02*
G01X0027592Y-037118D01*
G01X0027592Y-037118D02*
G01X0027521Y-037188D01*
G01X0027521Y-037188D02*
G01X0027521Y-037047D01*
G01X0027521Y-037047D02*
G01X0027214Y-036739D01*
G01X0027214Y-036739D02*
G01X0027120Y-036766D01*
G01X0027120Y-036766D02*
G01X0027049Y-036968D01*
G01X0027049Y-036968D02*
G01X0027060Y-037181D01*
G01X0027060Y-037181D02*
G01X0027120Y-037328D01*
G01X0027120Y-037328D02*
G01X0027214Y-037355D01*
G01X0027214Y-037355D02*
G01X0027521Y-037047D01*
G01X0027521Y-037047D02*
G01X0027521Y-037188D01*
G01X0027521Y-037188D02*
G01X0027284Y-037425D01*
G01X0027284Y-037425D02*
G01X0027311Y-037519D01*
G01X0027311Y-037519D02*
G01X0027513Y-037590D01*
G01X0027513Y-037590D02*
G01X0027726Y-037579D01*
G01X0027726Y-037579D02*
G01X0027873Y-037519D01*
G01X0027873Y-037519D02*
G01X0027900Y-037425D01*
G01X0027900Y-037425D02*
G01X0027900Y-038070D01*
G01X0027900Y-038070D02*
G01X0027689Y-038158D01*
G01X0027689Y-038158D02*
G01X0027417Y-038429D01*
G01X0027417Y-038429D02*
G01X0027270Y-038784D01*
G01X0027270Y-038784D02*
G01X0027270Y-039167D01*
G01X0027270Y-039167D02*
G01X0027416Y-039521D01*
G01X0027416Y-039521D02*
G01X0027687Y-039793D01*
G01X0027687Y-039793D02*
G01X0028042Y-039940D01*
G01X0028042Y-039940D02*
G01X0028336Y-039940D01*
G01X0028336Y-039940D02*
G01X0028294Y-040050D01*
G01X0028294Y-040050D02*
G01X0028302Y-040342D01*
G01X0028302Y-040342D02*
G01X0028399Y-040577D01*
G01X0028399Y-040577D02*
G01X0028513Y-040627D01*
G01X0028513Y-040627D02*
G01X0028927Y-040212D01*
G01X0028927Y-040212D02*
G01X0028962Y-040177D01*
G01X0028962Y-040177D02*
G01X0029033Y-040106D01*
G01X0029033Y-040106D02*
G01X0029068Y-040071D01*
G01X0029068Y-040071D02*
G01X0029483Y-039657D01*
G01X0029483Y-039657D02*
G01X0029483Y-039797D01*
G01X0029483Y-039797D02*
G01X0029104Y-040177D01*
G01X0029104Y-040177D02*
G01X0029553Y-040627D01*
G01X0029553Y-040627D02*
G01X0029667Y-040577D01*
G01X0029667Y-040577D02*
G01X0029772Y-040304D01*
G01X0029772Y-040304D02*
G01X0029772Y-051664D01*
G01X0029772Y-051664D02*
G01X0029483Y-051664D01*
G01X0029483Y-051664D02*
G01X0029483Y-040697D01*
G01X0029483Y-040697D02*
G01X0029033Y-040248D01*
G01X0029033Y-040248D02*
G01X0028583Y-040697D01*
G01X0028583Y-040697D02*
G01X0028633Y-040811D01*
G01X0028633Y-040811D02*
G01X0028906Y-040916D01*
G01X0028906Y-040916D02*
G01X0029198Y-040908D01*
G01X0029198Y-040908D02*
G01X0029433Y-040811D01*
G01X0029433Y-040811D02*
G01X0029483Y-040697D01*
G01X0029483Y-040697D02*
G01X0029483Y-051664D01*
G01X0029483Y-051664D02*
G01X0029439Y-051664D01*
G01X0029439Y-051664D02*
G01X0029439Y-046654D01*
G01X0029439Y-046654D02*
G01X0029439Y-045669D01*
G01X0029439Y-045669D02*
G01X0029416Y-045552D01*
G01X0029416Y-045552D02*
G01X0029350Y-045453D01*
G01X0029350Y-045453D02*
G01X0029251Y-045387D01*
G01X0029251Y-045387D02*
G01X0029134Y-045364D01*
G01X0029134Y-045364D02*
G01X0029017Y-045387D01*
G01X0029017Y-045387D02*
G01X0028918Y-045453D01*
G01X0028918Y-045453D02*
G01X0028852Y-045552D01*
G01X0028852Y-045552D02*
G01X0028829Y-045669D01*
G01X0028829Y-045669D02*
G01X0028829Y-045792D01*
G01X0028829Y-045792D02*
G01X0028797Y-045779D01*
G01X0028797Y-045779D02*
G01X0028684Y-045779D01*
G01X0028684Y-045779D02*
G01X0028618Y-045806D01*
G01X0028618Y-045806D02*
G01X0026682Y-045806D01*
G01X0026682Y-045806D02*
G01X0026363Y-045487D01*
G01X0026363Y-045487D02*
G01X0026360Y-045485D01*
G01X0026360Y-045485D02*
G01X0026240Y-045364D01*
G01X0026240Y-045364D02*
G01X0026235Y-043880D01*
G01X0026235Y-043880D02*
G01X0026232Y-043868D01*
G01X0026232Y-043868D02*
G01X0026234Y-043857D01*
G01X0026234Y-043857D02*
G01X0026222Y-043819D01*
G01X0026222Y-043819D02*
G01X0026215Y-043782D01*
G01X0026215Y-043782D02*
G01X0026208Y-043771D01*
G01X0026208Y-043771D02*
G01X0026205Y-043761D01*
G01X0026205Y-043761D02*
G01X0026182Y-043732D01*
G01X0026182Y-043732D02*
G01X0026159Y-043698D01*
G01X0026159Y-043698D02*
G01X0026148Y-043691D01*
G01X0026148Y-043691D02*
G01X0026142Y-043683D01*
G01X0026142Y-043683D02*
G01X0025998Y-043563D01*
G01X0025998Y-043563D02*
G01X0025998Y-043460D01*
G01X0025998Y-043460D02*
G01X0026052Y-043542D01*
G01X0026052Y-043542D02*
G01X0026393Y-043883D01*
G01X0026393Y-043883D02*
G01X0026477Y-043938D01*
G01X0026477Y-043938D02*
G01X0026575Y-043958D01*
G01X0026575Y-043958D02*
G01X0028816Y-043958D01*
G01X0028816Y-043958D02*
G01X0028880Y-043985D01*
G01X0028880Y-043985D02*
G01X0028993Y-043985D01*
G01X0028993Y-043985D02*
G01X0029097Y-043942D01*
G01X0029097Y-043942D02*
G01X0029177Y-043862D01*
G01X0029177Y-043862D02*
G01X0029221Y-043758D01*
G01X0029221Y-043758D02*
G01X0029221Y-043645D01*
G01X0029221Y-043645D02*
G01X0029178Y-043541D01*
G01X0029178Y-043541D02*
G01X0029098Y-043461D01*
G01X0029098Y-043461D02*
G01X0028994Y-043417D01*
G01X0028994Y-043417D02*
G01X0028881Y-043417D01*
G01X0028881Y-043417D02*
G01X0028815Y-043444D01*
G01X0028815Y-043444D02*
G01X0026682Y-043444D01*
G01X0026682Y-043444D02*
G01X0026491Y-043253D01*
G01X0026491Y-043253D02*
G01X0026491Y-042911D01*
G01X0026491Y-042911D02*
G01X0026517Y-042901D01*
G01X0026517Y-042901D02*
G01X0026658Y-042760D01*
G01X0026658Y-042760D02*
G01X0026734Y-042577D01*
G01X0026734Y-042577D02*
G01X0026809Y-042759D01*
G01X0026809Y-042759D02*
G01X0026950Y-042900D01*
G01X0026950Y-042900D02*
G01X0027134Y-042977D01*
G01X0027134Y-042977D02*
G01X0027333Y-042977D01*
G01X0027333Y-042977D02*
G01X0027517Y-042901D01*
G01X0027517Y-042901D02*
G01X0027658Y-042760D01*
G01X0027658Y-042760D02*
G01X0027735Y-042576D01*
G01X0027735Y-042576D02*
G01X0027735Y-042377D01*
G01X0027735Y-042377D02*
G01X0027659Y-042193D01*
G01X0027659Y-042193D02*
G01X0027518Y-042052D01*
G01X0027518Y-042052D02*
G01X0027334Y-041975D01*
G01X0027334Y-041975D02*
G01X0027135Y-041975D01*
G01X0027135Y-041975D02*
G01X0026951Y-042051D01*
G01X0026951Y-042051D02*
G01X0026810Y-042192D01*
G01X0026810Y-042192D02*
G01X0026733Y-042374D01*
G01X0026733Y-042374D02*
G01X0026659Y-042193D01*
G01X0026659Y-042193D02*
G01X0026518Y-042052D01*
G01X0026518Y-042052D02*
G01X0026334Y-041975D01*
G01X0026334Y-041975D02*
G01X0026281Y-041975D01*
G01X0026281Y-041975D02*
G01X0026311Y-041946D01*
G01X0026311Y-041946D02*
G01X0026384Y-041977D01*
G01X0026384Y-041977D02*
G01X0026583Y-041977D01*
G01X0026583Y-041977D02*
G01X0026767Y-041901D01*
G01X0026767Y-041901D02*
G01X0026908Y-041760D01*
G01X0026908Y-041760D02*
G01X0026984Y-041577D01*
G01X0026984Y-041577D02*
G01X0027059Y-041759D01*
G01X0027059Y-041759D02*
G01X0027200Y-041900D01*
G01X0027200Y-041900D02*
G01X0027384Y-041977D01*
G01X0027384Y-041977D02*
G01X0027583Y-041977D01*
G01X0027583Y-041977D02*
G01X0027767Y-041901D01*
G01X0027767Y-041901D02*
G01X0027908Y-041760D01*
G01X0027908Y-041760D02*
G01X0027985Y-041576D01*
G01X0027985Y-041576D02*
G01X0027985Y-041377D01*
G01X0027985Y-041377D02*
G01X0027909Y-041193D01*
G01X0027909Y-041193D02*
G01X0027768Y-041052D01*
G01X0027768Y-041052D02*
G01X0027584Y-040975D01*
G01X0027584Y-040975D02*
G01X0027385Y-040975D01*
G01X0027385Y-040975D02*
G01X0027201Y-041051D01*
G01X0027201Y-041051D02*
G01X0027060Y-041192D01*
G01X0027060Y-041192D02*
G01X0026983Y-041374D01*
G01X0026983Y-041374D02*
G01X0026909Y-041193D01*
G01X0026909Y-041193D02*
G01X0026768Y-041052D01*
G01X0026768Y-041052D02*
G01X0026584Y-040975D01*
G01X0026584Y-040975D02*
G01X0026385Y-040975D01*
G01X0026385Y-040975D02*
G01X0026201Y-041051D01*
G01X0026201Y-041051D02*
G01X0026060Y-041192D01*
G01X0026060Y-041192D02*
G01X0025983Y-041374D01*
G01X0025983Y-041374D02*
G01X0025909Y-041193D01*
G01X0025909Y-041193D02*
G01X0025768Y-041052D01*
G01X0025768Y-041052D02*
G01X0025584Y-040975D01*
G01X0025584Y-040975D02*
G01X0025385Y-040975D01*
G01X0025385Y-040975D02*
G01X0025201Y-041051D01*
G01X0025201Y-041051D02*
G01X0025060Y-041192D01*
G01X0025060Y-041192D02*
G01X0024986Y-041367D01*
G01X0024986Y-041367D02*
G01X0024919Y-041204D01*
G01X0024919Y-041204D02*
G01X0024919Y-037126D01*
G01X0024919Y-037126D02*
G01X0024908Y-036913D01*
G01X0024908Y-036913D02*
G01X0024848Y-036766D01*
G01X0024848Y-036766D02*
G01X0024754Y-036739D01*
G01X0024754Y-036739D02*
G01X0024684Y-036809D01*
G01X0024684Y-036809D02*
G01X0024684Y-036669D01*
G01X0024684Y-036669D02*
G01X0024657Y-036575D01*
G01X0024657Y-036575D02*
G01X0024455Y-036504D01*
G01X0024455Y-036504D02*
G01X0024242Y-036515D01*
G01X0024242Y-036515D02*
G01X0024095Y-036575D01*
G01X0024095Y-036575D02*
G01X0024068Y-036669D01*
G01X0024068Y-036669D02*
G01X0024376Y-036976D01*
G01X0024376Y-036976D02*
G01X0024684Y-036669D01*
G01X0024684Y-036669D02*
G01X0024684Y-036809D01*
G01X0024684Y-036809D02*
G01X0024447Y-037047D01*
G01X0024447Y-037047D02*
G01X0024754Y-037355D01*
G01X0024754Y-037355D02*
G01X0024848Y-037328D01*
G01X0024848Y-037328D02*
G01X0024919Y-037126D01*
G01X0024919Y-037126D02*
G01X0024919Y-041204D01*
G01X0024919Y-041204D02*
G01X0024913Y-041190D01*
G01X0024913Y-041190D02*
G01X0024771Y-041047D01*
G01X0024771Y-041047D02*
G01X0024698Y-041016D01*
G01X0024698Y-041016D02*
G01X0024698Y-039168D01*
G01X0024698Y-039168D02*
G01X0024698Y-038785D01*
G01X0024698Y-038785D02*
G01X0024684Y-038751D01*
G01X0024684Y-038751D02*
G01X0024684Y-037425D01*
G01X0024684Y-037425D02*
G01X0024376Y-037118D01*
G01X0024376Y-037118D02*
G01X0024305Y-037188D01*
G01X0024305Y-037188D02*
G01X0024305Y-037047D01*
G01X0024305Y-037047D02*
G01X0023998Y-036739D01*
G01X0023998Y-036739D02*
G01X0023904Y-036766D01*
G01X0023904Y-036766D02*
G01X0023859Y-036892D01*
G01X0023859Y-036892D02*
G01X0023805Y-036761D01*
G01X0023805Y-036761D02*
G01X0023663Y-036618D01*
G01X0023663Y-036618D02*
G01X0023477Y-036541D01*
G01X0023477Y-036541D02*
G01X0023276Y-036541D01*
G01X0023276Y-036541D02*
G01X0023090Y-036618D01*
G01X0023090Y-036618D02*
G01X0022947Y-036760D01*
G01X0022947Y-036760D02*
G01X0022870Y-036946D01*
G01X0022870Y-036946D02*
G01X0022870Y-037147D01*
G01X0022870Y-037147D02*
G01X0022947Y-037333D01*
G01X0022947Y-037333D02*
G01X0023089Y-037476D01*
G01X0023089Y-037476D02*
G01X0023275Y-037553D01*
G01X0023275Y-037553D02*
G01X0023476Y-037553D01*
G01X0023476Y-037553D02*
G01X0023662Y-037476D01*
G01X0023662Y-037476D02*
G01X0023805Y-037334D01*
G01X0023805Y-037334D02*
G01X0023856Y-037210D01*
G01X0023856Y-037210D02*
G01X0023904Y-037328D01*
G01X0023904Y-037328D02*
G01X0023998Y-037355D01*
G01X0023998Y-037355D02*
G01X0024305Y-037047D01*
G01X0024305Y-037047D02*
G01X0024305Y-037188D01*
G01X0024305Y-037188D02*
G01X0024068Y-037425D01*
G01X0024068Y-037425D02*
G01X0024095Y-037519D01*
G01X0024095Y-037519D02*
G01X0024297Y-037590D01*
G01X0024297Y-037590D02*
G01X0024510Y-037579D01*
G01X0024510Y-037579D02*
G01X0024657Y-037519D01*
G01X0024657Y-037519D02*
G01X0024684Y-037425D01*
G01X0024684Y-037425D02*
G01X0024684Y-038751D01*
G01X0024684Y-038751D02*
G01X0024552Y-038431D01*
G01X0024552Y-038431D02*
G01X0024281Y-038159D01*
G01X0024281Y-038159D02*
G01X0023926Y-038012D01*
G01X0023926Y-038012D02*
G01X0023543Y-038012D01*
G01X0023543Y-038012D02*
G01X0023189Y-038158D01*
G01X0023189Y-038158D02*
G01X0022917Y-038429D01*
G01X0022917Y-038429D02*
G01X0022770Y-038784D01*
G01X0022770Y-038784D02*
G01X0022770Y-039167D01*
G01X0022770Y-039167D02*
G01X0022883Y-039442D01*
G01X0022883Y-039442D02*
G01X0022770Y-039446D01*
G01X0022770Y-039446D02*
G01X0022535Y-039543D01*
G01X0022535Y-039543D02*
G01X0022485Y-039657D01*
G01X0022485Y-039657D02*
G01X0022900Y-040071D01*
G01X0022900Y-040071D02*
G01X0022935Y-040106D01*
G01X0022935Y-040106D02*
G01X0023006Y-040177D01*
G01X0023006Y-040177D02*
G01X0023041Y-040212D01*
G01X0023041Y-040212D02*
G01X0023455Y-040627D01*
G01X0023455Y-040627D02*
G01X0023569Y-040577D01*
G01X0023569Y-040577D02*
G01X0023674Y-040304D01*
G01X0023674Y-040304D02*
G01X0023666Y-040012D01*
G01X0023666Y-040012D02*
G01X0023636Y-039940D01*
G01X0023636Y-039940D02*
G01X0023925Y-039940D01*
G01X0023925Y-039940D02*
G01X0024279Y-039794D01*
G01X0024279Y-039794D02*
G01X0024551Y-039523D01*
G01X0024551Y-039523D02*
G01X0024698Y-039168D01*
G01X0024698Y-039168D02*
G01X0024698Y-041016D01*
G01X0024698Y-041016D02*
G01X0024585Y-040970D01*
G01X0024585Y-040970D02*
G01X0024384Y-040970D01*
G01X0024384Y-040970D02*
G01X0024198Y-041047D01*
G01X0024198Y-041047D02*
G01X0024055Y-041189D01*
G01X0024055Y-041189D02*
G01X0023978Y-041375D01*
G01X0023978Y-041375D02*
G01X0023978Y-041576D01*
G01X0023978Y-041576D02*
G01X0024055Y-041762D01*
G01X0024055Y-041762D02*
G01X0024197Y-041905D01*
G01X0024197Y-041905D02*
G01X0024276Y-041937D01*
G01X0024276Y-041937D02*
G01X0024100Y-041948D01*
G01X0024100Y-041948D02*
G01X0023955Y-042008D01*
G01X0023955Y-042008D02*
G01X0023930Y-042101D01*
G01X0023930Y-042101D02*
G01X0024234Y-042405D01*
G01X0024234Y-042405D02*
G01X0024538Y-042101D01*
G01X0024538Y-042101D02*
G01X0024513Y-042008D01*
G01X0024513Y-042008D02*
G01X0024440Y-041982D01*
G01X0024440Y-041982D02*
G01X0024584Y-041982D01*
G01X0024584Y-041982D02*
G01X0024770Y-041905D01*
G01X0024770Y-041905D02*
G01X0024913Y-041763D01*
G01X0024913Y-041763D02*
G01X0024986Y-041584D01*
G01X0024986Y-041584D02*
G01X0025059Y-041759D01*
G01X0025059Y-041759D02*
G01X0025200Y-041900D01*
G01X0025200Y-041900D02*
G01X0025384Y-041977D01*
G01X0025384Y-041977D02*
G01X0025542Y-041977D01*
G01X0025542Y-041977D02*
G01X0025525Y-042003D01*
G01X0025525Y-042003D02*
G01X0025513Y-042021D01*
G01X0025513Y-042021D02*
G01X0025512Y-042023D01*
G01X0025512Y-042023D02*
G01X0025510Y-042027D01*
G01X0025510Y-042027D02*
G01X0025505Y-042046D01*
G01X0025505Y-042046D02*
G01X0025334Y-041975D01*
G01X0025334Y-041975D02*
G01X0025135Y-041975D01*
G01X0025135Y-041975D02*
G01X0024951Y-042051D01*
G01X0024951Y-042051D02*
G01X0024810Y-042192D01*
G01X0024810Y-042192D02*
G01X0024754Y-042324D01*
G01X0024754Y-042324D02*
G01X0024702Y-042197D01*
G01X0024702Y-042197D02*
G01X0024609Y-042172D01*
G01X0024609Y-042172D02*
G01X0024305Y-042476D01*
G01X0024305Y-042476D02*
G01X0024609Y-042780D01*
G01X0024609Y-042780D02*
G01X0024702Y-042755D01*
G01X0024702Y-042755D02*
G01X0024750Y-042618D01*
G01X0024750Y-042618D02*
G01X0024759Y-042638D01*
G01X0024759Y-042638D02*
G01X0024743Y-042717D01*
G01X0024743Y-042717D02*
G01X0024743Y-045276D01*
G01X0024743Y-045276D02*
G01X0024763Y-045374D01*
G01X0024763Y-045374D02*
G01X0024818Y-045458D01*
G01X0024818Y-045458D02*
G01X0025999Y-046639D01*
G01X0025999Y-046639D02*
G01X0026083Y-046694D01*
G01X0026083Y-046694D02*
G01X0026181Y-046714D01*
G01X0026181Y-046714D02*
G01X0028225Y-046714D01*
G01X0028225Y-046714D02*
G01X0028289Y-046741D01*
G01X0028289Y-046741D02*
G01X0028402Y-046741D01*
G01X0028402Y-046741D02*
G01X0028506Y-046698D01*
G01X0028506Y-046698D02*
G01X0028586Y-046618D01*
G01X0028586Y-046618D02*
G01X0028630Y-046514D01*
G01X0028630Y-046514D02*
G01X0028630Y-046401D01*
G01X0028630Y-046401D02*
G01X0028596Y-046320D01*
G01X0028596Y-046320D02*
G01X0028619Y-046320D01*
G01X0028619Y-046320D02*
G01X0028683Y-046347D01*
G01X0028683Y-046347D02*
G01X0028796Y-046347D01*
G01X0028796Y-046347D02*
G01X0028829Y-046333D01*
G01X0028829Y-046333D02*
G01X0028829Y-046527D01*
G01X0028829Y-046527D02*
G01X0028417Y-046939D01*
G01X0028417Y-046939D02*
G01X0026575Y-046939D01*
G01X0026575Y-046939D02*
G01X0026458Y-046962D01*
G01X0026458Y-046962D02*
G01X0026359Y-047028D01*
G01X0026359Y-047028D02*
G01X0025965Y-047422D01*
G01X0025965Y-047422D02*
G01X0025963Y-047424D01*
G01X0025963Y-047424D02*
G01X0025768Y-047619D01*
G01X0025768Y-047619D02*
G01X0025702Y-047718D01*
G01X0025702Y-047718D02*
G01X0025679Y-047835D01*
G01X0025679Y-047835D02*
G01X0025679Y-049444D01*
G01X0025679Y-049444D02*
G01X0025640Y-049537D01*
G01X0025640Y-049537D02*
G01X0025640Y-049674D01*
G01X0025640Y-049674D02*
G01X0025679Y-049768D01*
G01X0025679Y-049768D02*
G01X0025679Y-050070D01*
G01X0025679Y-050070D02*
G01X0025390Y-050358D01*
G01X0025390Y-050358D02*
G01X0025298Y-050397D01*
G01X0025298Y-050397D02*
G01X0025201Y-050494D01*
G01X0025201Y-050494D02*
G01X0025148Y-050620D01*
G01X0025148Y-050620D02*
G01X0025148Y-050757D01*
G01X0025148Y-050757D02*
G01X0025200Y-050883D01*
G01X0025200Y-050883D02*
G01X0025297Y-050980D01*
G01X0025297Y-050980D02*
G01X0025423Y-051033D01*
G01X0025423Y-051033D02*
G01X0025560Y-051033D01*
G01X0025560Y-051033D02*
G01X0025686Y-050981D01*
G01X0025686Y-050981D02*
G01X0025783Y-050884D01*
G01X0025783Y-050884D02*
G01X0025822Y-050790D01*
G01X0025822Y-050790D02*
G01X0026197Y-050414D01*
G01X0026197Y-050414D02*
G01X0026199Y-050413D01*
G01X0026199Y-050413D02*
G01X0026200Y-050413D01*
G01X0026200Y-050413D02*
G01X0026266Y-050314D01*
G01X0026266Y-050314D02*
G01X0026289Y-050198D01*
G01X0026289Y-050198D02*
G01X0026288Y-050197D01*
G01X0026288Y-050197D02*
G01X0026289Y-050197D01*
G01X0026289Y-050197D02*
G01X0026289Y-049767D01*
G01X0026289Y-049767D02*
G01X0026328Y-049675D01*
G01X0026328Y-049675D02*
G01X0026328Y-049538D01*
G01X0026328Y-049538D02*
G01X0026289Y-049443D01*
G01X0026289Y-049443D02*
G01X0026289Y-047961D01*
G01X0026289Y-047961D02*
G01X0026394Y-047855D01*
G01X0026394Y-047855D02*
G01X0026396Y-047854D01*
G01X0026396Y-047854D02*
G01X0026397Y-047854D01*
G01X0026397Y-047854D02*
G01X0026702Y-047549D01*
G01X0026702Y-047549D02*
G01X0028544Y-047549D01*
G01X0028544Y-047549D02*
G01X0028661Y-047526D01*
G01X0028661Y-047526D02*
G01X0028760Y-047460D01*
G01X0028760Y-047460D02*
G01X0029347Y-046871D01*
G01X0029347Y-046871D02*
G01X0029349Y-046870D01*
G01X0029349Y-046870D02*
G01X0029350Y-046870D01*
G01X0029350Y-046870D02*
G01X0029416Y-046771D01*
G01X0029416Y-046771D02*
G01X0029439Y-046654D01*
G01X0029439Y-046654D02*
G01X0029439Y-051664D01*
G01X0029439Y-051664D02*
G01X0028867Y-051664D01*
G01X0028867Y-051664D02*
G01X0028675Y-051472D01*
G01X0028675Y-051472D02*
G01X0028651Y-051412D01*
G01X0028651Y-051412D02*
G01X0028651Y-049704D01*
G01X0028651Y-049704D02*
G01X0028628Y-049587D01*
G01X0028628Y-049587D02*
G01X0028562Y-049488D01*
G01X0028562Y-049488D02*
G01X0028380Y-049306D01*
G01X0028380Y-049306D02*
G01X0028343Y-049215D01*
G01X0028343Y-049215D02*
G01X0028246Y-049118D01*
G01X0028246Y-049118D02*
G01X0028120Y-049065D01*
G01X0028120Y-049065D02*
G01X0027983Y-049065D01*
G01X0027983Y-049065D02*
G01X0027857Y-049117D01*
G01X0027857Y-049117D02*
G01X0027760Y-049214D01*
G01X0027760Y-049214D02*
G01X0027707Y-049340D01*
G01X0027707Y-049340D02*
G01X0027707Y-049477D01*
G01X0027707Y-049477D02*
G01X0027759Y-049603D01*
G01X0027759Y-049603D02*
G01X0027856Y-049700D01*
G01X0027856Y-049700D02*
G01X0027949Y-049739D01*
G01X0027949Y-049739D02*
G01X0028041Y-049831D01*
G01X0028041Y-049831D02*
G01X0028041Y-051304D01*
G01X0028041Y-051304D02*
G01X0028010Y-051291D01*
G01X0028010Y-051291D02*
G01X0027897Y-051291D01*
G01X0027897Y-051291D02*
G01X0027793Y-051334D01*
G01X0027793Y-051334D02*
G01X0027756Y-051371D01*
G01X0027756Y-051371D02*
G01X0027720Y-051335D01*
G01X0027720Y-051335D02*
G01X0027616Y-051291D01*
G01X0027616Y-051291D02*
G01X0027503Y-051291D01*
G01X0027503Y-051291D02*
G01X0027399Y-051334D01*
G01X0027399Y-051334D02*
G01X0027319Y-051414D01*
G01X0027319Y-051414D02*
G01X0027275Y-051518D01*
G01X0027275Y-051518D02*
G01X0027275Y-051631D01*
G01X0027275Y-051631D02*
G01X0027302Y-051696D01*
G01X0027302Y-051696D02*
G01X0027302Y-052452D01*
G01X0027302Y-052452D02*
G01X0027058Y-052696D01*
G01X0027058Y-052696D02*
G01X0024538Y-052696D01*
G01X0024538Y-052696D02*
G01X0024538Y-042851D01*
G01X0024538Y-042851D02*
G01X0024234Y-042547D01*
G01X0024234Y-042547D02*
G01X0024163Y-042618D01*
G01X0024163Y-042618D02*
G01X0024163Y-042476D01*
G01X0024163Y-042476D02*
G01X0023859Y-042172D01*
G01X0023859Y-042172D02*
G01X0023766Y-042197D01*
G01X0023766Y-042197D02*
G01X0023694Y-042398D01*
G01X0023694Y-042398D02*
G01X0023706Y-042610D01*
G01X0023706Y-042610D02*
G01X0023766Y-042755D01*
G01X0023766Y-042755D02*
G01X0023859Y-042780D01*
G01X0023859Y-042780D02*
G01X0024163Y-042476D01*
G01X0024163Y-042476D02*
G01X0024163Y-042618D01*
G01X0024163Y-042618D02*
G01X0023930Y-042851D01*
G01X0023930Y-042851D02*
G01X0023955Y-042944D01*
G01X0023955Y-042944D02*
G01X0024156Y-043016D01*
G01X0024156Y-043016D02*
G01X0024368Y-043004D01*
G01X0024368Y-043004D02*
G01X0024513Y-042944D01*
G01X0024513Y-042944D02*
G01X0024538Y-042851D01*
G01X0024538Y-042851D02*
G01X0024538Y-052696D01*
G01X0024538Y-052696D02*
G01X0023531Y-052696D01*
G01X0023531Y-052696D02*
G01X0023385Y-052549D01*
G01X0023385Y-052549D02*
G01X0023385Y-040697D01*
G01X0023385Y-040697D02*
G01X0022935Y-040248D01*
G01X0022935Y-040248D02*
G01X0022864Y-040318D01*
G01X0022864Y-040318D02*
G01X0022864Y-040177D01*
G01X0022864Y-040177D02*
G01X0022415Y-039727D01*
G01X0022415Y-039727D02*
G01X0022301Y-039777D01*
G01X0022301Y-039777D02*
G01X0022196Y-040050D01*
G01X0022196Y-040050D02*
G01X0022204Y-040342D01*
G01X0022204Y-040342D02*
G01X0022301Y-040577D01*
G01X0022301Y-040577D02*
G01X0022415Y-040627D01*
G01X0022415Y-040627D02*
G01X0022864Y-040177D01*
G01X0022864Y-040177D02*
G01X0022864Y-040318D01*
G01X0022864Y-040318D02*
G01X0022485Y-040697D01*
G01X0022485Y-040697D02*
G01X0022535Y-040811D01*
G01X0022535Y-040811D02*
G01X0022808Y-040916D01*
G01X0022808Y-040916D02*
G01X0023100Y-040908D01*
G01X0023100Y-040908D02*
G01X0023335Y-040811D01*
G01X0023335Y-040811D02*
G01X0023385Y-040697D01*
G01X0023385Y-040697D02*
G01X0023385Y-052549D01*
G01X0023385Y-052549D02*
G01X0022304Y-051468D01*
G01X0022304Y-051468D02*
G01X0022304Y-051150D01*
G01X0022304Y-051150D02*
G01X0022364Y-051211D01*
G01X0022364Y-051211D02*
G01X0022541Y-051285D01*
G01X0022541Y-051285D02*
G01X0022733Y-051285D01*
G01X0022733Y-051285D02*
G01X0022910Y-051212D01*
G01X0022910Y-051212D02*
G01X0023046Y-051077D01*
G01X0023046Y-051077D02*
G01X0023120Y-050900D01*
G01X0023120Y-050900D02*
G01X0023120Y-050708D01*
G01X0023120Y-050708D02*
G01X0023047Y-050531D01*
G01X0023047Y-050531D02*
G01X0022912Y-050395D01*
G01X0022912Y-050395D02*
G01X0022735Y-050321D01*
G01X0022735Y-050321D02*
G01X0022543Y-050321D01*
G01X0022543Y-050321D02*
G01X0022366Y-050394D01*
G01X0022366Y-050394D02*
G01X0022304Y-050455D01*
G01X0022304Y-050455D02*
G01X0022304Y-049150D01*
G01X0022304Y-049150D02*
G01X0022364Y-049211D01*
G01X0022364Y-049211D02*
G01X0022541Y-049285D01*
G01X0022541Y-049285D02*
G01X0022733Y-049285D01*
G01X0022733Y-049285D02*
G01X0022910Y-049212D01*
G01X0022910Y-049212D02*
G01X0023046Y-049077D01*
G01X0023046Y-049077D02*
G01X0023120Y-048900D01*
G01X0023120Y-048900D02*
G01X0023120Y-048708D01*
G01X0023120Y-048708D02*
G01X0023047Y-048531D01*
G01X0023047Y-048531D02*
G01X0022912Y-048395D01*
G01X0022912Y-048395D02*
G01X0022735Y-048321D01*
G01X0022735Y-048321D02*
G01X0022543Y-048321D01*
G01X0022543Y-048321D02*
G01X0022366Y-048394D01*
G01X0022366Y-048394D02*
G01X0022304Y-048455D01*
G01X0022304Y-048455D02*
G01X0022304Y-047244D01*
G01X0022304Y-047244D02*
G01X0022304Y-046760D01*
G01X0022304Y-046760D02*
G01X0022930Y-046133D01*
G01X0022930Y-046133D02*
G01X0022995Y-046107D01*
G01X0022995Y-046107D02*
G01X0023075Y-046027D01*
G01X0023075Y-046027D02*
G01X0023119Y-045923D01*
G01X0023119Y-045923D02*
G01X0023119Y-045810D01*
G01X0023119Y-045810D02*
G01X0023076Y-045706D01*
G01X0023076Y-045706D02*
G01X0022996Y-045626D01*
G01X0022996Y-045626D02*
G01X0022892Y-045582D01*
G01X0022892Y-045582D02*
G01X0022779Y-045582D01*
G01X0022779Y-045582D02*
G01X0022675Y-045625D01*
G01X0022675Y-045625D02*
G01X0022595Y-045705D01*
G01X0022595Y-045705D02*
G01X0022567Y-045770D01*
G01X0022567Y-045770D02*
G01X0021911Y-046426D01*
G01X0021911Y-046426D02*
G01X0021911Y-046365D01*
G01X0021911Y-046365D02*
G01X0022142Y-046133D01*
G01X0022142Y-046133D02*
G01X0022207Y-046107D01*
G01X0022207Y-046107D02*
G01X0022287Y-046027D01*
G01X0022287Y-046027D02*
G01X0022331Y-045923D01*
G01X0022331Y-045923D02*
G01X0022331Y-045810D01*
G01X0022331Y-045810D02*
G01X0022288Y-045706D01*
G01X0022288Y-045706D02*
G01X0022208Y-045626D01*
G01X0022208Y-045626D02*
G01X0022104Y-045582D01*
G01X0022104Y-045582D02*
G01X0021991Y-045582D01*
G01X0021991Y-045582D02*
G01X0021887Y-045625D01*
G01X0021887Y-045625D02*
G01X0021807Y-045705D01*
G01X0021807Y-045705D02*
G01X0021779Y-045770D01*
G01X0021779Y-045770D02*
G01X0021486Y-046063D01*
G01X0021486Y-046063D02*
G01X0021486Y-034871D01*
G01X0021486Y-034871D02*
G01X0040718Y-034871D01*
G01X0040718Y-034871D02*
G01X0040718Y-054104D01*
M02*
