G04 (created by PCBNEW-RS274X (2012-apr-16-27)-stable) date dim. 09 juin 2013 18:30:19 CEST*
G01*
G70*
G90*
%MOIN*%
G04 Gerber Fmt 3.4, Leading zero omitted, Abs format*
%FSLAX34Y34*%
G04 APERTURE LIST*
%ADD10C,0.006000*%
%ADD11C,0.003900*%
%ADD12C,0.171600*%
%ADD13C,0.079100*%
%ADD14C,0.080000*%
%ADD15C,0.120000*%
%ADD16R,0.070000X0.036000*%
%ADD17R,0.164000X0.100000*%
%ADD18R,0.060000X0.100000*%
%ADD19R,0.065000X0.045000*%
%ADD20R,0.045000X0.065000*%
%ADD21C,0.083000*%
%ADD22R,0.083000X0.083000*%
%ADD23C,0.075000*%
G04 APERTURE END LIST*
G54D10*
G54D11*
X40944Y-54331D02*
X40944Y-34646D01*
X40945Y-54330D02*
X21260Y-54330D01*
X21260Y-34645D02*
X21260Y-54330D01*
X21260Y-34645D02*
X40945Y-34645D01*
G54D12*
X28234Y-38976D03*
X23734Y-38976D03*
G54D13*
X24234Y-42476D03*
G54D14*
X24484Y-41476D03*
G54D13*
X25234Y-42476D03*
X25484Y-41476D03*
X26234Y-42476D03*
X26484Y-41476D03*
X27234Y-42476D03*
G54D15*
X29033Y-40177D03*
X22935Y-40177D03*
G54D14*
X24376Y-37047D03*
X27592Y-37047D03*
X23376Y-37047D03*
X28592Y-37047D03*
G54D13*
X27484Y-41476D03*
G54D16*
X29565Y-51605D03*
X29565Y-51355D03*
X29565Y-51095D03*
X29565Y-50835D03*
X29565Y-50585D03*
X29565Y-50325D03*
X29565Y-50065D03*
X29565Y-49815D03*
X29565Y-49555D03*
X29565Y-49305D03*
X29565Y-49045D03*
X29565Y-48785D03*
X29565Y-48535D03*
X29565Y-48275D03*
X26765Y-48275D03*
X26765Y-48535D03*
X26765Y-48775D03*
X26765Y-49045D03*
X26765Y-49305D03*
X26765Y-49555D03*
X26765Y-49815D03*
X26765Y-50065D03*
X26765Y-50325D03*
X26765Y-50585D03*
X26765Y-50835D03*
X26765Y-51095D03*
X26765Y-51355D03*
X26765Y-51605D03*
X35652Y-41413D03*
X35652Y-41163D03*
X35652Y-40903D03*
X35652Y-40643D03*
X35652Y-40393D03*
X35652Y-40133D03*
X35652Y-39873D03*
X35652Y-39623D03*
X35652Y-39363D03*
X35652Y-39113D03*
X35652Y-38853D03*
X35652Y-38593D03*
X35652Y-38343D03*
X35652Y-38083D03*
X32852Y-38083D03*
X32852Y-38343D03*
X32852Y-38583D03*
X32852Y-38853D03*
X32852Y-39113D03*
X32852Y-39363D03*
X32852Y-39623D03*
X32852Y-39873D03*
X32852Y-40133D03*
X32852Y-40393D03*
X32852Y-40643D03*
X32852Y-40903D03*
X32852Y-41163D03*
X32852Y-41413D03*
G54D17*
X34055Y-50275D03*
G54D18*
X34055Y-52875D03*
X34955Y-52875D03*
X33155Y-52875D03*
G54D19*
X30906Y-48922D03*
X30906Y-48322D03*
X38386Y-42032D03*
X38386Y-41432D03*
G54D20*
X37899Y-47834D03*
X37299Y-47834D03*
G54D19*
X22047Y-44985D03*
X22047Y-44385D03*
X23031Y-44985D03*
X23031Y-44385D03*
X24016Y-44385D03*
X24016Y-44985D03*
X24409Y-49119D03*
X24409Y-48519D03*
X31693Y-39473D03*
X31693Y-38873D03*
X26772Y-52456D03*
X26772Y-53056D03*
X24409Y-51875D03*
X24409Y-51275D03*
X25591Y-51875D03*
X25591Y-51275D03*
X36811Y-38292D03*
X36811Y-37692D03*
X25591Y-49119D03*
X25591Y-48519D03*
X31693Y-41442D03*
X31693Y-40842D03*
X36811Y-38873D03*
X36811Y-39473D03*
X30512Y-53056D03*
X30512Y-52456D03*
X31496Y-52456D03*
X31496Y-53056D03*
X29921Y-44385D03*
X29921Y-44985D03*
X28937Y-44385D03*
X28937Y-44985D03*
G54D21*
X39567Y-40764D03*
X39567Y-39764D03*
G54D22*
X39567Y-41764D03*
G54D21*
X39567Y-38764D03*
X39567Y-37764D03*
X38689Y-52953D03*
X37689Y-52953D03*
G54D22*
X39689Y-52953D03*
G54D21*
X36689Y-52953D03*
G54D19*
X29528Y-53056D03*
X29528Y-52456D03*
X24409Y-47741D03*
X24409Y-47141D03*
X24409Y-50497D03*
X24409Y-49897D03*
X27953Y-44985D03*
X27953Y-44385D03*
X26969Y-44985D03*
X26969Y-44385D03*
X25984Y-44985D03*
X25984Y-44385D03*
X25000Y-44985D03*
X25000Y-44385D03*
G54D23*
X22638Y-50803D03*
X22638Y-48803D03*
G54D20*
X37299Y-50787D03*
X37899Y-50787D03*
X37299Y-49803D03*
X37899Y-49803D03*
X37299Y-48819D03*
X37899Y-48819D03*
G54D21*
X33500Y-35500D03*
X34500Y-35500D03*
G54D22*
X32500Y-35500D03*
G54D21*
X35500Y-35500D03*
X36500Y-35500D03*
X33500Y-36500D03*
X34500Y-36500D03*
G54D22*
X32500Y-36500D03*
G54D21*
X35500Y-36500D03*
X36500Y-36500D03*
G54D20*
X39276Y-47835D03*
X38676Y-47835D03*
X39276Y-50787D03*
X38676Y-50787D03*
X39276Y-48819D03*
X38676Y-48819D03*
X39276Y-49803D03*
X38676Y-49803D03*
M02*
